<svg width="83.051773" height="86.231201" viewBox="0 0 83.0518 86.2312" fill="none" xmlns="http://www.w3.org/2000/svg" xmlns:xlink="http://www.w3.org/1999/xlink">
	<desc>
			Created with Pixso.
	</desc>
	<path d="M41.5259 0C64.4297 0 83.0518 19.3293 83.0518 43.1156C83.0518 66.8962 64.4351 86.2312 41.5259 86.2312C18.622 86.2312 0 66.8962 0 43.1156C0 19.335 18.622 0 41.5259 0ZM41.5259 6.15857C36.8071 6.16296 32.2683 7.10364 27.9095 8.98059C23.5507 10.8577 19.7029 13.5283 16.3662 16.9928C13.0295 20.4572 10.4573 24.4523 8.64952 28.9779C6.84175 33.5035 5.93575 38.2161 5.93151 43.1156C5.93575 48.015 6.84175 52.7275 8.64952 57.2533C10.4573 61.7789 13.0295 65.7739 16.3662 69.2384C19.7029 72.7029 23.5507 75.3735 27.9095 77.2505C32.2683 79.1274 36.8071 80.0681 41.5259 80.0726C46.2447 80.0681 50.7835 79.1274 55.1423 77.2505C59.5011 75.3735 63.3488 72.7029 66.6855 69.2384C70.0222 65.7739 72.5945 61.7789 74.4022 57.2533C76.21 52.7275 77.116 48.015 77.1203 43.1156C77.116 38.2161 76.21 33.5035 74.4022 28.9779C72.5945 24.4523 70.0222 20.4572 66.6855 16.9928C63.3488 13.5283 59.5011 10.8577 55.1423 8.98059C50.7835 7.10364 46.2447 6.16296 41.5259 6.15857ZM44.4943 60.5736L44.4943 64.9205C44.4943 65.9167 43.6867 66.7244 42.6905 66.7244L41.5259 66.7244C39.8865 66.7244 38.5575 65.3954 38.5575 63.756L38.5575 63.6478C38.5575 61.9487 39.9349 60.5713 41.634 60.5713L44.4888 60.5713L44.4943 60.5736ZM44.4943 19.5067L44.4943 51.4388C44.4943 53.0782 43.1653 54.4072 41.5259 54.4072C39.8865 54.4072 38.5575 53.0782 38.5575 51.4388L38.5575 25.4436C38.5575 22.1648 41.2155 19.5067 44.4943 19.5067L44.4943 19.5067Z" fill-rule="evenodd" fill="#FF0000"/>
	<defs/>
</svg>
