<svg width="39.000000" height="39.000000" viewBox="0 0 39 39" fill="none" xmlns="http://www.w3.org/2000/svg" xmlns:xlink="http://www.w3.org/1999/xlink">
	<desc>
			Created with Pixso.
	</desc>
	<g filter="url(#filter_9_604_dd)">
		<path d="M33.7031 12.4969C33.0813 12.4405 31.1935 12.0362 30.6984 10.9566C30.2667 10.0168 30.9805 8.69123 31.6548 7.74468L32.0737 7.15661L27.9733 2.83715L27.3494 3.30451C26.7866 3.72658 24.9479 4.81846 23.9003 4.32108C23.0592 3.92095 22.8293 2.47973 22.7839 1.34177L22.7511 0.5L16.2495 0.5L16.2162 1.34159C16.171 2.47953 15.941 3.92078 15.1002 4.32108C14.0544 4.81846 12.2133 3.72658 11.6506 3.30451L11.0259 2.83612L6.92651 7.15658L7.34528 7.74478C8.0188 8.68982 8.7323 10.0141 8.30377 10.9538C7.81183 12.0315 5.96503 12.4333 5.29712 12.4971L4.50037 12.5698L4.50037 15.2055L4.5 15.2055L4.5 18.4301L5.29675 18.5029C5.96466 18.5667 7.81158 18.9687 8.30341 20.0463C8.73193 20.9859 8.01862 22.3101 7.34515 23.255L6.92651 23.8435L11.0258 28.1639L11.6505 27.6955C12.213 27.2734 14.0541 26.1814 15.0999 26.6786C15.9406 27.0791 16.4547 28.5048 16.4999 29.6429L16.4999 30.5L22.4999 30.5L22.4999 29.6429C22.5455 28.5048 23.0592 27.0791 23.9 26.6786C24.9478 26.1814 26.7864 27.2734 27.3494 27.6955L27.9733 28.1631L32.0735 23.8435L31.6548 23.255C30.9802 22.3086 30.2664 20.9829 30.6981 20.0431C31.1933 18.9637 33.0811 18.5594 33.7029 18.5029L34.4998 18.4302L34.4998 15.2317L34.5 15.2317L34.5 12.5698L33.7031 12.4969ZM33.2143 17.2143C32.1349 17.4428 29.8345 17.7243 29.1057 19.3121C28.5454 20.5336 29.1772 21.971 30.2143 23.6429L27.6429 26.2143C26.6313 25.6009 24.784 24.3209 23.1517 25.0944C22.0027 25.6385 21.3134 27.2942 21.0967 29.1759L17.9029 29.1759C17.6865 27.2942 16.997 25.6385 15.8478 25.0944C14.2163 24.3221 12.2635 25.2427 11.2515 25.8567L9.17505 23.6681C10.2122 21.9962 10.4542 20.5336 9.89386 19.3121C9.1651 17.7243 6.86469 17.4428 5.78564 17.2143L5.78564 13.7857C6.86481 13.5571 9.16541 13.2757 9.89435 11.688C10.4545 10.4664 10.2126 9.00367 9.17542 7.33197L11.2518 5.14304C12.2636 5.75714 14.2163 6.6778 15.8481 5.90564C18.1594 4.81052 17.7856 1.78574 17.7856 1.78574L21.2142 1.78574C21.4307 3.6675 22.003 5.36142 23.152 5.90564C24.7841 6.67917 26.7365 5.75663 27.748 5.14304L29.825 7.33197C28.7878 9.0037 28.5458 10.4664 29.1057 11.688C29.8345 13.2757 32.1353 13.5571 33.2143 13.7857L33.2143 17.2143ZM19.2265 9.01979C15.604 9.01979 12.6573 11.9677 12.6573 15.5916C12.6573 19.2155 15.4489 21.9286 19.0714 21.9286C22.6937 21.9286 25.5 19.1238 25.5 15.5001C25.5 11.8761 22.8488 9.01979 19.2265 9.01979ZM19.0723 20.6379C16.2363 20.6379 13.9294 18.3324 13.9294 15.4983C13.9294 12.6641 16.2363 10.3586 19.0723 10.3586C21.908 10.3586 24.215 12.6641 24.215 15.4983C24.215 18.3325 21.908 20.6379 19.0723 20.6379Z" fill-rule="evenodd" fill="#000000"/>
		<path d="M30.6984 10.9566C30.2667 10.0168 30.9805 8.69123 31.6548 7.74468L32.0737 7.15661L27.9733 2.83715L27.3494 3.30451C26.7866 3.72658 24.9479 4.81846 23.9003 4.32108C23.0592 3.92095 22.8293 2.47973 22.7839 1.34177L22.7511 0.5L16.2495 0.5L16.2162 1.34159C16.171 2.47953 15.941 3.92078 15.1002 4.32108C14.0544 4.81846 12.2133 3.72658 11.6506 3.30451L11.0259 2.83612L6.92651 7.15658L7.34528 7.74478C8.0188 8.68982 8.7323 10.0141 8.30377 10.9538C7.81183 12.0315 5.96503 12.4333 5.29712 12.4971L4.50037 12.5698L4.50037 15.2055L4.5 15.2055L4.5 18.4301L5.29675 18.5029C5.96466 18.5667 7.81158 18.9687 8.30341 20.0463C8.73193 20.9859 8.01862 22.3101 7.34515 23.255L6.92651 23.8435L11.0258 28.1639L11.6505 27.6955C12.213 27.2734 14.0541 26.1814 15.0999 26.6786C15.9406 27.0791 16.4547 28.5048 16.4999 29.6429L16.4999 30.5L22.4999 30.5L22.4999 29.6429C22.5455 28.5048 23.0592 27.0791 23.9 26.6786C24.9478 26.1814 26.7864 27.2734 27.3494 27.6955L27.9733 28.1631L32.0735 23.8435L31.6548 23.255C30.9802 22.3086 30.2664 20.9829 30.6981 20.0431C31.1933 18.9637 33.0811 18.5594 33.7029 18.5029L34.4998 18.4302L34.4998 15.2317L34.5 15.2317L34.5 12.5698L33.7031 12.4969C33.0813 12.4405 31.1935 12.0362 30.6984 10.9566ZM29.1057 19.3121C28.5454 20.5336 29.1772 21.971 30.2143 23.6429L27.6429 26.2143C26.6313 25.6009 24.784 24.3209 23.1517 25.0944C22.0027 25.6385 21.3134 27.2942 21.0967 29.1759L17.9029 29.1759C17.6865 27.2942 16.997 25.6385 15.8478 25.0944C14.2163 24.3221 12.2635 25.2427 11.2515 25.8567L9.17505 23.6681C10.2122 21.9962 10.4542 20.5336 9.89386 19.3121C9.1651 17.7243 6.86469 17.4428 5.78564 17.2143L5.78564 13.7857C6.86481 13.5571 9.16541 13.2757 9.89435 11.688C10.4545 10.4664 10.2126 9.00367 9.17542 7.33197L11.2518 5.14304C12.2636 5.75714 14.2163 6.6778 15.8481 5.90564C18.1594 4.81052 17.7856 1.78574 17.7856 1.78574L21.2142 1.78574C21.4307 3.6675 22.003 5.36142 23.152 5.90564C24.7841 6.67917 26.7365 5.75663 27.748 5.14304L29.825 7.33197C28.7878 9.0037 28.5458 10.4664 29.1057 11.688C29.8345 13.2757 32.1353 13.5571 33.2143 13.7857L33.2143 17.2143C32.1349 17.4428 29.8345 17.7243 29.1057 19.3121ZM12.6573 15.5916C12.6573 19.2155 15.4489 21.9286 19.0714 21.9286C22.6937 21.9286 25.5 19.1238 25.5 15.5001C25.5 11.8761 22.8488 9.01979 19.2265 9.01979C15.604 9.01979 12.6573 11.9677 12.6573 15.5916ZM13.9294 15.4983C13.9294 12.6641 16.2363 10.3586 19.0723 10.3586C21.908 10.3586 24.215 12.6641 24.215 15.4983C24.215 18.3325 21.908 20.6379 19.0723 20.6379C16.2363 20.6379 13.9294 18.3324 13.9294 15.4983Z" stroke="#000000"/>
	</g>
	<defs>
		<filter id="filter_9_604_dd" x="0.000000" y="0.000000" width="39.000000" height="39.000000" filterUnits="userSpaceOnUse" color-interpolation-filters="sRGB">
			<feFlood flood-opacity="0" result="BackgroundImageFix"/>
			<feColorMatrix in="SourceAlpha" type="matrix" values="0 0 0 0 0 0 0 0 0 0 0 0 0 0 0 0 0 0 127 0"/>
			<feOffset dx="0" dy="4"/>
			<feGaussianBlur stdDeviation="1.33333"/>
			<feColorMatrix type="matrix" values="0 0 0 0 0 0 0 0 0 0 0 0 0 0 0 0 0 0 0.25 0"/>
			<feBlend mode="normal" in2="BackgroundImageFix" result="effect_dropShadow_1"/>
			<feBlend mode="normal" in="SourceGraphic" in2="effect_dropShadow_1" result="shape"/>
		</filter>
	</defs>
</svg>
