<svg width="50.000000" height="50.000000" viewBox="0 0 50 50" fill="none" xmlns="http://www.w3.org/2000/svg" xmlns:xlink="http://www.w3.org/1999/xlink">
	<desc>
			Created with Pixso.
	</desc>
	<g clip-path="url(#clip9_140)">
		<path d="M20.2051 3.73047L29.7803 3.73047C28.2373 3.38379 26.6357 3.20312 24.9902 3.20312C23.3447 3.20801 21.7432 3.38867 20.2051 3.73047Z" fill-rule="evenodd" fill="#00D995"/>
		<path d="M17.71 4.44824L32.2754 4.45312C31.4648 4.16504 30.6348 3.92578 29.7803 3.73535L20.2051 3.73535C19.3555 3.9209 18.5205 4.16016 17.71 4.44824Z" fill-rule="evenodd" fill="#01D996"/>
		<path d="M15.9375 5.16113L34.0479 5.16602C33.4717 4.90234 32.876 4.66309 32.2754 4.44824L17.71 4.44336C17.1094 4.6582 16.5137 4.89746 15.9375 5.16113L15.9375 5.16113Z" fill-rule="evenodd" fill="#01D997"/>
		<path d="M14.5068 5.87891L35.4736 5.88379C35.0098 5.62988 34.5312 5.39062 34.043 5.16602L15.9326 5.16113C15.4492 5.38574 14.9756 5.62012 14.5068 5.87891Z" fill-rule="evenodd" fill="#01D898"/>
		<path d="M13.2959 6.5918L36.6895 6.59668C36.2939 6.34766 35.8887 6.1084 35.4785 5.87891L14.5117 5.87402C14.0967 6.10352 13.6914 6.34277 13.2959 6.5918L13.2959 6.5918Z" fill-rule="evenodd" fill="#01D899"/>
		<path d="M12.2363 7.30957L37.749 7.31445C37.4023 7.06543 37.0508 6.82617 36.6895 6.59668L13.2959 6.5918C12.9346 6.82129 12.583 7.06055 12.2363 7.30957L12.2363 7.30957Z" fill-rule="evenodd" fill="#01D89A"/>
		<path d="M11.2939 8.02246L38.6865 8.02734C38.3789 7.77832 38.0664 7.54395 37.7441 7.30957L12.2314 7.30469C11.9189 7.53906 11.6016 7.77832 11.2939 8.02246Z" fill-rule="evenodd" fill="#01D79B"/>
		<path d="M10.4492 8.74023L39.5312 8.74512C39.2578 8.50098 38.9746 8.26172 38.6865 8.02734L11.2939 8.02246C11.0107 8.25684 10.7275 8.49121 10.4492 8.74023L10.4492 8.74023Z" fill-rule="evenodd" fill="#01D79C"/>
		<path d="M9.6875 9.45312L40.3027 9.45801C40.0537 9.21387 39.7998 8.97461 39.5361 8.74023L10.4541 8.73535C10.1904 8.96973 9.93652 9.20898 9.6875 9.45312L9.6875 9.45312Z" fill-rule="evenodd" fill="#02D79D"/>
		<path d="M8.98926 10.1709L40.9961 10.1758C40.7666 9.93164 40.5371 9.69238 40.2979 9.45801L9.68262 9.45312C9.44824 9.6875 9.21387 9.92676 8.98926 10.1709Z" fill-rule="evenodd" fill="#02D79E"/>
		<path d="M8.34961 10.8838L41.6309 10.8887C41.4258 10.6445 41.2109 10.4053 40.9961 10.1709L8.98926 10.1709C8.76953 10.4053 8.55957 10.6396 8.34961 10.8838Z" fill-rule="evenodd" fill="#02D69F"/>
		<path d="M7.76367 11.6016L42.2168 11.6064C42.0264 11.3623 41.8311 11.123 41.6309 10.8887L8.34961 10.8838C8.14941 11.1182 7.9541 11.3574 7.76367 11.6016Z" fill-rule="evenodd" fill="#02D6A0"/>
		<path d="M7.22656 12.3145L42.7539 12.3193C42.5781 12.0752 42.4023 11.8359 42.2168 11.6016L7.76367 11.5967C7.58301 11.8359 7.40234 12.0752 7.22656 12.3145Z" fill-rule="evenodd" fill="#02D6A1"/>
		<path d="M6.7334 13.0322L43.2471 13.0371C43.0859 12.793 42.9199 12.5586 42.7539 12.3193L7.22656 12.3145C7.06055 12.5488 6.89453 12.7881 6.7334 13.0322Z" fill-rule="evenodd" fill="#02D5A2"/>
		<path d="M6.2793 13.7451L43.7012 13.7549C43.5547 13.5107 43.4033 13.2764 43.2471 13.0371L6.7334 13.0322C6.57715 13.2666 6.42578 13.5059 6.2793 13.7451L6.2793 13.7451Z" fill-rule="evenodd" fill="#02D5A3"/>
		<path d="M5.86426 14.4629L44.1162 14.4727C43.9795 14.2334 43.8428 13.9941 43.7012 13.7549L6.2793 13.7451C6.1377 13.9844 6.00098 14.2188 5.86426 14.4629L5.86426 14.4629Z" fill-rule="evenodd" fill="#02D5A4"/>
		<path d="M5.4834 15.1758L44.4971 15.1855C44.375 14.9463 44.248 14.707 44.1162 14.4678L5.86426 14.458C5.73242 14.6973 5.60547 14.9365 5.4834 15.1758L5.4834 15.1758Z" fill-rule="evenodd" fill="#03D4A5"/>
		<path d="M5.13672 15.8936L44.8438 15.9033C44.7314 15.6641 44.6143 15.4248 44.4971 15.1855L5.4834 15.1758C5.36621 15.415 5.24902 15.6543 5.13672 15.8936L5.13672 15.8936Z" fill-rule="evenodd" fill="#03D4A6"/>
		<path d="M4.81934 16.6064L45.1611 16.6162C45.0586 16.377 44.9561 16.1377 44.8438 15.8984L5.13672 15.8887C5.0293 16.1279 4.92188 16.3672 4.81934 16.6064L4.81934 16.6064Z" fill-rule="evenodd" fill="#03D4A7"/>
		<path d="M4.53613 17.3242L45.4492 17.334C45.3564 17.0947 45.2637 16.8555 45.166 16.6162L4.82422 16.6064C4.72168 16.8457 4.62402 17.085 4.53613 17.3242L4.53613 17.3242Z" fill-rule="evenodd" fill="#03D4A8"/>
		<path d="M4.27734 18.042L45.7031 18.0518C45.6201 17.8125 45.5371 17.5732 45.4443 17.334L4.53125 17.3242C4.44336 17.5586 4.36035 17.7979 4.27734 18.042L4.27734 18.042Z" fill-rule="evenodd" fill="#03D3A9"/>
		<path d="M4.04785 18.7549L45.9326 18.7646C45.8594 18.5254 45.7861 18.2861 45.7031 18.0469L4.27734 18.0371C4.19922 18.2764 4.12109 18.5156 4.04785 18.7549L4.04785 18.7549Z" fill-rule="evenodd" fill="#03D3AA"/>
		<path d="M3.84766 19.4727L46.1328 19.4824C46.0693 19.2432 46.001 19.0039 45.9326 18.7646L4.04785 18.7549C3.97949 18.9941 3.91113 19.2285 3.84766 19.4727L3.84766 19.4727Z" fill-rule="evenodd" fill="#03D3AB"/>
		<path d="M3.67188 20.1855L46.3086 20.1953C46.2549 19.9561 46.1963 19.7168 46.1328 19.4775L3.84766 19.4678C3.78418 19.707 3.72559 19.9463 3.67188 20.1855L3.67188 20.1855Z" fill-rule="evenodd" fill="#04D2AC"/>
		<path d="M3.52051 20.9033L46.46 20.9131C46.4111 20.6738 46.3623 20.4346 46.3086 20.1953L3.67188 20.1855C3.61816 20.4248 3.56445 20.6641 3.52051 20.9033L3.52051 20.9033Z" fill-rule="evenodd" fill="#04D2AD"/>
		<path d="M3.39355 21.6162L46.5869 21.626C46.5479 21.3867 46.5088 21.1475 46.46 20.9082L3.52051 20.8984C3.47168 21.1377 3.43262 21.377 3.39355 21.6162Z" fill-rule="evenodd" fill="#04D2AE"/>
		<path d="M3.29102 22.334L46.6846 22.3438C46.6553 22.1045 46.6211 21.8652 46.582 21.626L3.38867 21.6162C3.35449 21.8555 3.32031 22.0947 3.29102 22.334L3.29102 22.334Z" fill-rule="evenodd" fill="#04D1AF"/>
		<path d="M3.21289 23.0469L46.7627 23.0566C46.7383 22.8174 46.7139 22.5781 46.6846 22.3389L3.29102 22.3291C3.26172 22.5684 3.2373 22.8076 3.21289 23.0469L3.21289 23.0469Z" fill-rule="evenodd" fill="#04D1B0"/>
		<path d="M3.15918 23.7646L46.8164 23.7744C46.8018 23.5352 46.7822 23.2959 46.7627 23.0615L3.21289 23.0469C3.19336 23.2861 3.17383 23.5254 3.15918 23.7646L3.15918 23.7646Z" fill-rule="evenodd" fill="#04D1B1"/>
		<path d="M3.12988 24.4775L46.8457 24.4873C46.8408 24.248 46.8311 24.0088 46.8164 23.7744L3.15918 23.7646C3.14453 24.0039 3.13477 24.2383 3.12988 24.4775L3.12988 24.4775Z" fill-rule="evenodd" fill="#04D1B2"/>
		<path d="M3.12988 24.4775C3.125 24.6729 3.12012 24.873 3.12012 25.0732L3.12012 25.1953L46.8506 25.2051L46.8506 25.0732C46.8506 24.8779 46.8457 24.6826 46.8408 24.4873L3.12988 24.4775Z" fill-rule="evenodd" fill="#05D0B3"/>
		<path d="M3.13965 25.9131L46.8408 25.9229C46.8506 25.6836 46.8555 25.4443 46.8555 25.2051L3.125 25.1953C3.125 25.4346 3.12988 25.6738 3.13965 25.9131Z" fill-rule="evenodd" fill="#05D0B4"/>
		<path d="M3.17871 26.626L46.8018 26.6357C46.8164 26.3965 46.8311 26.1572 46.8408 25.918L3.13965 25.9082C3.14453 26.1523 3.15918 26.3867 3.17871 26.626L3.17871 26.626Z" fill-rule="evenodd" fill="#05D0B5"/>
		<path d="M3.2373 27.3438L46.7383 27.3535C46.7627 27.1143 46.7822 26.875 46.8018 26.6357L3.17871 26.626C3.19336 26.8652 3.21289 27.1045 3.2373 27.3438L3.2373 27.3438Z" fill-rule="evenodd" fill="#05CFB6"/>
		<path d="M3.3252 28.0566L46.6553 28.0664C46.6895 27.8271 46.7139 27.5879 46.7432 27.3486L3.24219 27.3389C3.26172 27.583 3.29102 27.8223 3.3252 28.0566L3.3252 28.0566Z" fill-rule="evenodd" fill="#05CFB7"/>
		<path d="M3.43262 28.7744L46.543 28.7842C46.582 28.5449 46.6211 28.3105 46.6553 28.0664L3.3252 28.0566C3.35449 28.2959 3.39355 28.5352 3.43262 28.7744L3.43262 28.7744Z" fill-rule="evenodd" fill="#05CFB8"/>
		<path d="M3.56934 29.4873L46.4111 29.4971C46.46 29.2578 46.5039 29.0234 46.5479 28.7793L3.43262 28.7744C3.47656 29.0137 3.52051 29.2529 3.56934 29.4873L3.56934 29.4873Z" fill-rule="evenodd" fill="#05CEB9"/>
		<path d="M3.72559 30.2051L46.2451 30.2148C46.3037 29.9805 46.3574 29.7412 46.4062 29.4971L3.56445 29.4873L3.72559 30.2051L3.72559 30.2051Z" fill-rule="evenodd" fill="#06CEBA"/>
		<path d="M3.91113 30.918L46.0596 30.9277C46.123 30.6934 46.1865 30.4541 46.2451 30.21L3.72559 30.2002C3.78418 30.4443 3.84766 30.6836 3.91113 30.918L3.91113 30.918Z" fill-rule="evenodd" fill="#06CEBB"/>
		<path d="M4.12109 31.6357L45.8496 31.6455C45.9229 31.4111 45.9961 31.1719 46.0596 30.9277L3.91113 30.918C3.97949 31.1621 4.04785 31.3965 4.12109 31.6357L4.12109 31.6357Z" fill-rule="evenodd" fill="#06CEBD"/>
		<path d="M4.36035 32.3486L45.6104 32.3584C45.6934 32.124 45.7715 31.8848 45.8496 31.6406L4.12109 31.6309C4.19922 31.875 4.27734 32.1143 4.36035 32.3486L4.36035 32.3486Z" fill-rule="evenodd" fill="#06CDBE"/>
		<path d="M4.62891 33.0664L45.3467 33.0762C45.4395 32.8418 45.5273 32.6025 45.6152 32.3584L4.36523 32.3486C4.44824 32.5928 4.53613 32.832 4.62891 33.0664L4.62891 33.0664Z" fill-rule="evenodd" fill="#06CDBF"/>
		<path d="M4.92676 33.7842L45.0537 33.7939C45.1562 33.5596 45.2539 33.3203 45.3516 33.0762L4.62891 33.0664C4.72168 33.3057 4.82422 33.5449 4.92676 33.7842L4.92676 33.7842Z" fill-rule="evenodd" fill="#06CDC0"/>
		<path d="M5.24902 34.4971L44.7217 34.5068C44.834 34.2725 44.9414 34.0332 45.0488 33.7891L4.92188 33.7793C5.0293 34.0234 5.13672 34.2627 5.24902 34.4971L5.24902 34.4971Z" fill-rule="evenodd" fill="#06CCC1"/>
		<path d="M5.61035 35.2148L44.3652 35.2246C44.4873 34.9902 44.6094 34.751 44.7217 34.5068L5.24902 34.4971C5.36621 34.7412 5.48828 34.9756 5.61035 35.2148Z" fill-rule="evenodd" fill="#07CCC2"/>
		<path d="M6.00098 35.9277L43.9697 35.9375C44.1064 35.7031 44.2383 35.4639 44.3604 35.2197L5.60547 35.21C5.7373 35.4541 5.86914 35.6934 6.00098 35.9277L6.00098 35.9277Z" fill-rule="evenodd" fill="#07CCC3"/>
		<path d="M6.43066 36.6455L43.5449 36.6553C43.6914 36.4209 43.833 36.1816 43.9746 35.9375L6.00586 35.9277C6.14258 36.1719 6.28418 36.4111 6.43066 36.6455Z" fill-rule="evenodd" fill="#07CBC4"/>
		<path d="M6.89941 37.3584L43.0762 37.3682C43.2373 37.1338 43.3936 36.8945 43.5449 36.6504L6.43066 36.6406C6.58203 36.8848 6.73828 37.124 6.89941 37.3584L6.89941 37.3584Z" fill-rule="evenodd" fill="#07CBC5"/>
		<path d="M7.40723 38.0762L42.5684 38.0859C42.7441 37.8516 42.9102 37.6123 43.0762 37.3682L6.89941 37.3584C7.06055 37.6025 7.23145 37.8418 7.40723 38.0762L7.40723 38.0762Z" fill-rule="evenodd" fill="#07CBC6"/>
		<path d="M7.95898 38.7939L42.0117 38.7988C42.2021 38.5645 42.3877 38.3252 42.5635 38.0811L7.40234 38.0713C7.58301 38.3203 7.76855 38.5596 7.95898 38.7939L7.95898 38.7939Z" fill-rule="evenodd" fill="#07CBC7"/>
		<path d="M8.55957 39.5068L41.4062 39.5117C41.6113 39.2773 41.8115 39.0381 42.0117 38.7939L7.95898 38.7891C8.1543 39.0332 8.35449 39.2725 8.55957 39.5068Z" fill-rule="evenodd" fill="#07CAC8"/>
		<path d="M9.21875 40.2246L40.752 40.2295C40.9766 39.9951 41.1963 39.7559 41.4111 39.5117L8.56445 39.5068C8.77441 39.751 8.99414 39.9902 9.21875 40.2246L9.21875 40.2246Z" fill-rule="evenodd" fill="#08CAC9"/>
		<path d="M9.94141 40.9375L40.0342 40.9424C40.2783 40.708 40.5225 40.4688 40.7568 40.2246L9.21875 40.2246C9.45312 40.4688 9.69238 40.708 9.94141 40.9375Z" fill-rule="evenodd" fill="#08CACA"/>
		<path d="M10.7324 41.6553L39.2383 41.6602C39.5068 41.4258 39.7705 41.1914 40.0293 40.9424L9.93652 40.9375C10.1953 41.1816 10.4639 41.4209 10.7324 41.6553Z" fill-rule="evenodd" fill="#08C9CB"/>
		<path d="M11.6064 42.3682L38.3594 42.373C38.6572 42.1436 38.9502 41.9043 39.2383 41.6553L10.7324 41.6553C11.0156 41.8994 11.3086 42.1387 11.6064 42.3682L11.6064 42.3682Z" fill-rule="evenodd" fill="#08C9CC"/>
		<path d="M12.1143 42.749L37.8564 42.7539C38.0273 42.6318 38.1982 42.5 38.3643 42.373L11.6113 42.3682C11.7725 42.5 11.9434 42.627 12.1143 42.749L12.1143 42.749ZM24.9902 46.9434C29.7998 46.9434 34.248 45.3906 37.8564 42.7588L12.1143 42.7539C15.7275 45.3857 20.1758 46.9434 24.9902 46.9434Z" fill-rule="evenodd" fill="#08C9CC"/>
		<path d="M22.4951 24.2627L40.7129 24.2627L40.7129 21.5869C40.7129 20.7031 39.9951 19.9854 39.1113 19.9854L22.4951 19.9854L22.4951 24.2627L22.4951 24.2627Z" fill-rule="evenodd" fill="#FFFFFF"/>
		<path d="M25.1807 19.9854L25.1709 24.2578L25.2441 24.2578L25.2539 19.9854L25.1807 19.9854Z" fill-rule="evenodd" fill="#FFFFFF"/>
		<path d="M25.1074 19.9854L25.0977 24.2578L25.1709 24.2578L25.1807 19.9854L25.1074 19.9854Z" fill-rule="evenodd" fill="#FDFFFF"/>
		<path d="M25.0342 19.9854L25.0244 24.2578L25.0977 24.2578L25.1074 19.9854L25.0342 19.9854Z" fill-rule="evenodd" fill="#FBFFFE"/>
		<path d="M24.9561 19.9854L24.9512 24.2578L25.0244 24.2578L25.0342 19.9854L24.9561 19.9854Z" fill-rule="evenodd" fill="#FAFFFE"/>
		<path d="M24.8828 19.9854L24.873 24.2578L24.9512 24.2578L24.9561 19.9854L24.8828 19.9854Z" fill-rule="evenodd" fill="#F8FFFE"/>
		<path d="M24.8096 19.9854L24.7998 24.2578L24.873 24.2578L24.8828 19.9854L24.8096 19.9854Z" fill-rule="evenodd" fill="#F6FEFD"/>
		<path d="M24.7363 19.9854L24.7266 24.2578L24.7998 24.2578L24.8096 19.9854L24.7363 19.9854Z" fill-rule="evenodd" fill="#F4FEFD"/>
		<path d="M24.6582 19.9854L24.6533 24.2578L24.7266 24.2578L24.7363 19.9854L24.6582 19.9854Z" fill-rule="evenodd" fill="#F3FEFD"/>
		<path d="M24.585 19.9854L24.5752 24.2578L24.6533 24.2578L24.6582 19.9854L24.585 19.9854Z" fill-rule="evenodd" fill="#F1FEFC"/>
		<path d="M24.5117 19.9854L24.502 24.2578L24.5752 24.2578L24.585 19.9854L24.5117 19.9854Z" fill-rule="evenodd" fill="#EFFEFC"/>
		<path d="M24.4385 19.9854L24.4287 24.2578L24.502 24.2578L24.5117 19.9854L24.4385 19.9854Z" fill-rule="evenodd" fill="#EDFEFB"/>
		<path d="M24.3604 19.9854L24.3555 24.2578L24.4287 24.2578L24.4385 19.9854L24.3604 19.9854Z" fill-rule="evenodd" fill="#EBFEFB"/>
		<path d="M24.2871 19.9854L24.2773 24.2578L24.3555 24.2578L24.3604 19.9854L24.2871 19.9854Z" fill-rule="evenodd" fill="#EAFEFB"/>
		<path d="M24.2139 19.9854L24.2041 24.2578L24.2773 24.2578L24.2871 19.9854L24.2139 19.9854Z" fill-rule="evenodd" fill="#E8FDFA"/>
		<path d="M24.1406 19.9854L24.1309 24.2578L24.2041 24.2578L24.2139 19.9854L24.1406 19.9854Z" fill-rule="evenodd" fill="#E6FDFA"/>
		<path d="M24.0625 19.9854L24.0576 24.2578L24.1309 24.2578L24.1406 19.9854L24.0625 19.9854Z" fill-rule="evenodd" fill="#E4FDFA"/>
		<path d="M23.9893 19.9854L23.9795 24.2578L24.0576 24.2578L24.0625 19.9854L23.9893 19.9854Z" fill-rule="evenodd" fill="#E3FDF9"/>
		<path d="M23.916 19.9854L23.9062 24.2578L23.9795 24.2578L23.9893 19.9854L23.916 19.9854Z" fill-rule="evenodd" fill="#E1FDF9"/>
		<path d="M23.8428 19.9854L23.833 24.2578L23.9062 24.2578L23.916 19.9854L23.8428 19.9854Z" fill-rule="evenodd" fill="#DFFDF9"/>
		<path d="M23.7695 19.9854L23.7598 24.2578L23.833 24.2578L23.8428 19.9854L23.7695 19.9854Z" fill-rule="evenodd" fill="#DDFDF8"/>
		<path d="M23.6914 19.9854L23.6865 24.2578L23.7598 24.2578L23.7695 19.9854L23.6914 19.9854Z" fill-rule="evenodd" fill="#DBFDF8"/>
		<path d="M23.6182 19.9854L23.6084 24.2578L23.6865 24.2578L23.6914 19.9854L23.6182 19.9854Z" fill-rule="evenodd" fill="#DAFCF8"/>
		<path d="M23.5449 19.9854L23.5352 24.2578L23.6084 24.2578L23.6182 19.9854L23.5449 19.9854Z" fill-rule="evenodd" fill="#D8FCF7"/>
		<path d="M23.4717 19.9854L23.4619 24.2578L23.5352 24.2578L23.5449 19.9854L23.4717 19.9854Z" fill-rule="evenodd" fill="#D6FCF7"/>
		<path d="M23.3936 19.9854L23.3887 24.2578L23.4619 24.2578L23.4717 19.9854L23.3936 19.9854Z" fill-rule="evenodd" fill="#D4FCF7"/>
		<path d="M23.3203 19.9854L23.3105 24.2578L23.3887 24.2578L23.3936 19.9854L23.3203 19.9854Z" fill-rule="evenodd" fill="#D3FCF6"/>
		<path d="M23.2471 19.9854L23.2373 24.2578L23.3105 24.2578L23.3203 19.9854L23.2471 19.9854Z" fill-rule="evenodd" fill="#D1FCF6"/>
		<path d="M23.1738 19.9854L23.1641 24.2578L23.2373 24.2578L23.2471 19.9854L23.1738 19.9854Z" fill-rule="evenodd" fill="#CFFCF5"/>
		<path d="M23.0957 19.9854L23.0908 24.2578L23.1641 24.2578L23.1738 19.9854L23.0957 19.9854Z" fill-rule="evenodd" fill="#CDFCF5"/>
		<path d="M23.0225 19.9854L23.0127 24.2578L23.0908 24.2578L23.0957 19.9854L23.0225 19.9854Z" fill-rule="evenodd" fill="#CCFBF5"/>
		<path d="M22.9492 19.9854L22.9395 24.2578L23.0127 24.2578L23.0225 19.9854L22.9492 19.9854Z" fill-rule="evenodd" fill="#CAFBF4"/>
		<path d="M22.876 19.9854L22.8662 24.2578L22.9395 24.2578L22.9492 19.9854L22.876 19.9854Z" fill-rule="evenodd" fill="#C8FBF4"/>
		<path d="M22.7979 19.9854L22.793 24.2578L22.8662 24.2578L22.876 19.9854L22.7979 19.9854Z" fill-rule="evenodd" fill="#C6FBF4"/>
		<path d="M22.7246 19.9854L22.7148 24.2578L22.793 24.2578L22.7979 19.9854L22.7246 19.9854Z" fill-rule="evenodd" fill="#C5FBF3"/>
		<path d="M22.6514 19.9854L22.6416 24.2578L22.7148 24.2578L22.7246 19.9854L22.6514 19.9854Z" fill-rule="evenodd" fill="#C3FBF3"/>
		<path d="M22.5781 19.9854L22.5684 24.2578L22.6416 24.2578L22.6514 19.9854L22.5781 19.9854Z" fill-rule="evenodd" fill="#C1FBF3"/>
		<path d="M22.5 19.9854L22.4951 22.7393L22.4951 24.2578L22.5684 24.2578L22.5781 19.9854L22.5 19.9854Z" fill-rule="evenodd" fill="#BFFBF2"/>
		<path d="M22.4951 19.9854L22.4951 22.7393L22.5 19.9854L22.4951 19.9854Z" fill-rule="evenodd" fill="#BEFBF2"/>
		<path d="M22.4951 25.542L22.4951 34.2676L39.1113 34.2676C39.9951 34.2676 40.7129 33.5498 40.7129 32.666L40.7129 25.542L22.4951 25.542ZM33.5205 31.4453L29.6924 31.4453C28.8428 31.4453 28.1494 30.7568 28.1494 29.9072C28.1494 29.0576 28.8379 28.3691 29.6924 28.3691L33.5205 28.3691C34.3701 28.3691 35.0586 29.0576 35.0586 29.9072C35.0586 30.7568 34.3701 31.4453 33.5205 31.4453Z" fill-rule="evenodd" fill="#FFFFFF"/>
		<path d="M25.1904 25.542L25.1709 34.2725L25.2441 34.2725L25.2637 25.542L25.1904 25.542Z" fill-rule="evenodd" fill="#FFFFFF"/>
		<path d="M25.1123 25.542L25.0977 34.2725L25.1709 34.2725L25.1904 25.542L25.1123 25.542Z" fill-rule="evenodd" fill="#FDFFFF"/>
		<path d="M25.0391 25.542L25.0195 34.2725L25.0977 34.2725L25.1123 25.542L25.0391 25.542Z" fill-rule="evenodd" fill="#FBFFFE"/>
		<path d="M24.9658 25.542L24.9463 34.2725L25.0195 34.2725L25.0391 25.542L24.9658 25.542Z" fill-rule="evenodd" fill="#FAFFFE"/>
		<path d="M24.8926 25.542L24.873 34.2725L24.9463 34.2725L24.9658 25.542L24.8926 25.542Z" fill-rule="evenodd" fill="#F8FFFE"/>
		<path d="M24.8145 25.542L24.7998 34.2725L24.873 34.2725L24.8926 25.542L24.8145 25.542Z" fill-rule="evenodd" fill="#F6FEFD"/>
		<path d="M24.7412 25.542L24.7217 34.2725L24.7998 34.2725L24.8145 25.542L24.7412 25.542Z" fill-rule="evenodd" fill="#F4FEFD"/>
		<path d="M24.668 25.542L24.6484 34.2725L24.7217 34.2725L24.7412 25.542L24.668 25.542Z" fill-rule="evenodd" fill="#F3FEFD"/>
		<path d="M24.5898 25.542L24.5752 34.2725L24.6484 34.2725L24.668 25.542L24.5898 25.542Z" fill-rule="evenodd" fill="#F1FEFC"/>
		<path d="M24.5166 25.542L24.502 34.2725L24.5752 34.2725L24.5898 25.542L24.5166 25.542Z" fill-rule="evenodd" fill="#EFFEFC"/>
		<path d="M24.4434 25.542L24.4238 34.2725L24.502 34.2725L24.5166 25.542L24.4434 25.542Z" fill-rule="evenodd" fill="#EDFEFB"/>
		<path d="M24.3701 25.542L24.3506 34.2725L24.4238 34.2725L24.4434 25.542L24.3701 25.542Z" fill-rule="evenodd" fill="#EBFEFB"/>
		<path d="M24.292 25.542L24.2773 34.2725L24.3506 34.2725L24.3701 25.542L24.292 25.542Z" fill-rule="evenodd" fill="#EAFEFB"/>
		<path d="M24.2188 25.542L24.2041 34.2725L24.2773 34.2725L24.292 25.542L24.2188 25.542Z" fill-rule="evenodd" fill="#E8FDFA"/>
		<path d="M24.1455 25.542L24.126 34.2725L24.2041 34.2725L24.2188 25.542L24.1455 25.542Z" fill-rule="evenodd" fill="#E6FDFA"/>
		<path d="M24.0723 25.542L24.0527 34.2725L24.126 34.2725L24.1455 25.542L24.0723 25.542Z" fill-rule="evenodd" fill="#E4FDFA"/>
		<path d="M23.9941 25.542L23.9795 34.2725L24.0527 34.2725L24.0723 25.542L23.9941 25.542Z" fill-rule="evenodd" fill="#E3FDF9"/>
		<path d="M23.9209 25.542L23.9062 34.2725L23.9795 34.2725L23.9941 25.542L23.9209 25.542Z" fill-rule="evenodd" fill="#E1FDF9"/>
		<path d="M23.8477 25.542L23.8281 34.2725L23.9062 34.2725L23.9209 25.542L23.8477 25.542Z" fill-rule="evenodd" fill="#DFFDF9"/>
		<path d="M23.7744 25.542L23.7549 34.2725L23.8281 34.2725L23.8477 25.542L23.7744 25.542Z" fill-rule="evenodd" fill="#DDFDF8"/>
		<path d="M23.6963 25.542L23.6816 34.2725L23.7549 34.2725L23.7744 25.542L23.6963 25.542Z" fill-rule="evenodd" fill="#DBFDF8"/>
		<path d="M23.623 25.542L23.6035 34.2725L23.6816 34.2725L23.6963 25.542L23.623 25.542Z" fill-rule="evenodd" fill="#DAFCF8"/>
		<path d="M23.5498 25.542L23.5303 34.2725L23.6035 34.2725L23.623 25.542L23.5498 25.542Z" fill-rule="evenodd" fill="#D8FCF7"/>
		<path d="M23.4766 25.542L23.457 34.2725L23.5303 34.2725L23.5498 25.542L23.4766 25.542Z" fill-rule="evenodd" fill="#D6FCF7"/>
		<path d="M23.3984 25.542L23.3838 34.2725L23.457 34.2725L23.4766 25.542L23.3984 25.542Z" fill-rule="evenodd" fill="#D4FCF7"/>
		<path d="M23.3252 25.542L23.3057 34.2725L23.3838 34.2725L23.3984 25.542L23.3252 25.542Z" fill-rule="evenodd" fill="#D3FCF6"/>
		<path d="M23.252 25.542L23.2324 34.2725L23.3057 34.2725L23.3252 25.542L23.252 25.542Z" fill-rule="evenodd" fill="#D1FCF6"/>
		<path d="M23.1738 25.542L23.1592 34.2725L23.2324 34.2725L23.252 25.542L23.1738 25.542Z" fill-rule="evenodd" fill="#CFFCF5"/>
		<path d="M23.1006 25.542L23.0859 34.2725L23.1592 34.2725L23.1738 25.542L23.1006 25.542Z" fill-rule="evenodd" fill="#CDFCF5"/>
		<path d="M23.0273 25.542L23.0078 34.2725L23.0859 34.2725L23.1006 25.542L23.0273 25.542Z" fill-rule="evenodd" fill="#CCFBF5"/>
		<path d="M22.9541 25.542L22.9346 34.2725L23.0078 34.2725L23.0273 25.542L22.9541 25.542Z" fill-rule="evenodd" fill="#CAFBF4"/>
		<path d="M22.876 25.542L22.8613 34.2725L22.9346 34.2725L22.9541 25.542L22.876 25.542Z" fill-rule="evenodd" fill="#C8FBF4"/>
		<path d="M22.8027 25.542L22.7881 34.2725L22.8613 34.2725L22.876 25.542L22.8027 25.542Z" fill-rule="evenodd" fill="#C6FBF4"/>
		<path d="M22.7295 25.542L22.71 34.2725L22.7881 34.2725L22.8027 25.542L22.7295 25.542Z" fill-rule="evenodd" fill="#C5FBF3"/>
		<path d="M22.6562 25.542L22.6367 34.2725L22.71 34.2725L22.7295 25.542L22.6562 25.542Z" fill-rule="evenodd" fill="#C3FBF3"/>
		<path d="M22.5781 25.542L22.5635 34.2725L22.6367 34.2725L22.6562 25.542L22.5781 25.542Z" fill-rule="evenodd" fill="#C1FBF3"/>
		<path d="M22.5049 25.542L22.4951 29.9072L22.4951 34.2725L22.5635 34.2725L22.5781 25.542L22.5049 25.542Z" fill-rule="evenodd" fill="#BFFBF2"/>
		<path d="M22.4951 25.542L22.4951 29.9072L22.5049 25.542L22.4951 25.542Z" fill-rule="evenodd" fill="#BEFBF2"/>
		<path d="M19.4531 12.6123C17.583 12.6123 16.0645 14.1309 16.0645 16.001L16.0645 19.9854L12.2314 19.9854C11.3477 19.9854 10.6299 20.7031 10.6299 21.5869L10.6299 32.666C10.6299 33.5498 11.3477 34.2676 12.2314 34.2676L21.2158 34.2676L21.2158 19.9854L17.3486 19.9854L17.3486 16.001C17.3486 14.8389 18.2959 13.8965 19.458 13.8965C20.6201 13.8965 21.5625 14.8389 21.5625 16.001C21.5625 16.3525 21.8506 16.6406 22.207 16.6406C22.5635 16.6406 22.8467 16.3525 22.8467 16.001C22.8418 14.1309 21.3232 12.6123 19.4531 12.6123L19.4531 12.6123Z" fill-rule="evenodd" fill="#FFFFFF"/>
		<path d="M17.3438 17.4316L16.0645 17.4316L16.0645 17.5L17.3438 17.5L17.3438 17.4316Z" fill-rule="evenodd" fill="#FFFFFF"/>
		<path d="M17.3438 17.5L16.0645 17.5L16.0645 17.5684L17.3438 17.5732L17.3438 17.5Z" fill-rule="evenodd" fill="#FDFFFF"/>
		<path d="M17.3438 17.5732L16.0645 17.5684L16.0645 17.6367L17.3438 17.6416L17.3438 17.5732Z" fill-rule="evenodd" fill="#FBFFFE"/>
		<path d="M17.3438 17.6416L16.0645 17.6367L16.0645 17.7051L17.3438 17.71L17.3438 17.6416Z" fill-rule="evenodd" fill="#FAFFFE"/>
		<path d="M17.3438 17.71L16.0645 17.7051L16.0645 17.7734L17.3438 17.7783L17.3438 17.71Z" fill-rule="evenodd" fill="#F8FFFE"/>
		<path d="M17.3438 17.7783L16.0645 17.7734L16.0645 17.8418L17.3438 17.8467L17.3438 17.7783Z" fill-rule="evenodd" fill="#F6FEFD"/>
		<path d="M17.3438 17.8467L16.0645 17.8418L16.0645 17.9102L17.3438 17.915L17.3438 17.8467Z" fill-rule="evenodd" fill="#F4FEFD"/>
		<path d="M17.3438 17.915L16.0645 17.9102L16.0645 17.9785L17.3438 17.9834L17.3438 17.915Z" fill-rule="evenodd" fill="#F3FEFD"/>
		<path d="M17.3438 17.9834L16.0645 17.9785L16.0645 18.0469L17.3438 18.0518L17.3438 17.9834Z" fill-rule="evenodd" fill="#F1FEFC"/>
		<path d="M17.3438 18.0518L16.0645 18.0469L16.0645 18.1152L17.3438 18.1201L17.3438 18.0518Z" fill-rule="evenodd" fill="#EFFEFC"/>
		<path d="M17.3438 18.1201L16.0645 18.1152L16.0645 18.1885L17.3438 18.1885L17.3438 18.1201Z" fill-rule="evenodd" fill="#EDFEFB"/>
		<path d="M17.3438 18.1885L16.0645 18.1885L16.0645 18.2568L17.3438 18.2568L17.3438 18.1885Z" fill-rule="evenodd" fill="#EBFEFB"/>
		<path d="M17.3438 18.2568L16.0645 18.2568L16.0645 18.3252L17.3438 18.3252L17.3438 18.2568Z" fill-rule="evenodd" fill="#EAFEFB"/>
		<path d="M17.3438 18.3252L16.0645 18.3252L16.0645 18.3936L17.3438 18.3936L17.3438 18.3252Z" fill-rule="evenodd" fill="#E8FDFA"/>
		<path d="M17.3438 18.3936L16.0645 18.3936L16.0645 18.4619L17.3438 18.4619L17.3438 18.3936Z" fill-rule="evenodd" fill="#E6FDFA"/>
		<path d="M17.3438 18.4619L16.0645 18.4619L16.0645 18.5303L17.3438 18.5303L17.3438 18.4619Z" fill-rule="evenodd" fill="#E4FDFA"/>
		<path d="M17.3438 18.5303L16.0645 18.5303L16.0645 18.5986L17.3438 18.5986L17.3438 18.5303Z" fill-rule="evenodd" fill="#E3FDF9"/>
		<path d="M17.3438 18.5986L16.0645 18.5986L16.0645 18.667L17.3438 18.667L17.3438 18.5986Z" fill-rule="evenodd" fill="#E1FDF9"/>
		<path d="M17.3438 18.667L16.0645 18.667L16.0645 18.7354L17.3438 18.7402L17.3438 18.667Z" fill-rule="evenodd" fill="#DFFDF9"/>
		<path d="M17.3438 18.7402L16.0645 18.7354L16.0645 18.8037L17.3438 18.8086L17.3438 18.7402Z" fill-rule="evenodd" fill="#DDFDF8"/>
		<path d="M17.3438 18.8086L16.0645 18.8037L16.0645 18.8721L17.3438 18.877L17.3438 18.8086Z" fill-rule="evenodd" fill="#DBFDF8"/>
		<path d="M17.3438 18.877L16.0645 18.8721L16.0645 18.9404L17.3438 18.9453L17.3438 18.877Z" fill-rule="evenodd" fill="#DAFCF8"/>
		<path d="M17.3438 18.9453L16.0645 18.9404L16.0645 19.0088L17.3438 19.0137L17.3438 18.9453Z" fill-rule="evenodd" fill="#D8FCF7"/>
		<path d="M17.3438 19.0137L16.0645 19.0088L16.0645 19.0771L17.3438 19.082L17.3438 19.0137Z" fill-rule="evenodd" fill="#D6FCF7"/>
		<path d="M17.3438 19.082L16.0645 19.0771L16.0645 19.1455L17.3438 19.1504L17.3438 19.082Z" fill-rule="evenodd" fill="#D4FCF7"/>
		<path d="M17.3438 19.1504L16.0645 19.1455L16.0645 19.2139L17.3438 19.2188L17.3438 19.1504Z" fill-rule="evenodd" fill="#D3FCF6"/>
		<path d="M17.3438 19.2188L16.0645 19.2139L16.0645 19.2822L17.3438 19.2871L17.3438 19.2188Z" fill-rule="evenodd" fill="#D1FCF6"/>
		<path d="M17.3438 19.2871L16.0645 19.2822L16.0645 19.3555L17.3438 19.3555L17.3438 19.2871Z" fill-rule="evenodd" fill="#CFFCF5"/>
		<path d="M17.3438 19.3555L16.0645 19.3555L16.0645 19.4238L17.3438 19.4238L17.3438 19.3555Z" fill-rule="evenodd" fill="#CDFCF5"/>
		<path d="M17.3438 19.4238L16.0645 19.4238L16.0645 19.4922L17.3438 19.4922L17.3438 19.4238Z" fill-rule="evenodd" fill="#CCFBF5"/>
		<path d="M17.3438 19.4922L16.0645 19.4922L16.0645 19.5605L17.3438 19.5605L17.3438 19.4922Z" fill-rule="evenodd" fill="#CAFBF4"/>
		<path d="M17.3438 19.5605L16.0645 19.5605L16.0645 19.6289L17.3438 19.6289L17.3438 19.5605Z" fill-rule="evenodd" fill="#C8FBF4"/>
		<path d="M17.3438 19.6289L16.0645 19.6289L16.0645 19.6973L17.3438 19.6973L17.3438 19.6289Z" fill-rule="evenodd" fill="#C6FBF4"/>
		<path d="M17.3438 19.6973L16.0645 19.6973L16.0645 19.7656L17.3438 19.7656L17.3438 19.6973Z" fill-rule="evenodd" fill="#C5FBF3"/>
		<path d="M17.3438 19.7656L16.0645 19.7656L16.0645 19.834L17.3438 19.834L17.3438 19.7656Z" fill-rule="evenodd" fill="#C3FBF3"/>
		<path d="M17.3438 19.834L16.0645 19.834L16.0645 19.9023L17.3438 19.9072L17.3438 19.834Z" fill-rule="evenodd" fill="#C1FBF3"/>
		<path d="M17.3438 19.9072L16.0645 19.9023L16.0645 19.9707L17.3438 19.9756L17.3438 19.9072Z" fill-rule="evenodd" fill="#BFFBF2"/>
		<path d="M16.0645 19.9707L16.0645 19.9805L17.3438 19.9805L17.3438 19.9756L16.0645 19.9707Z" fill-rule="evenodd" fill="#BEFBF2"/>
	</g>
	<defs>
		<clipPath id="clip9_140">
			<rect width="50.000000" height="50.000000" fill="white"/>
		</clipPath>
	</defs>
</svg>
