<svg width="50.000000" height="50.000000" viewBox="0 0 50 50" fill="none" xmlns="http://www.w3.org/2000/svg" xmlns:xlink="http://www.w3.org/1999/xlink">
	<desc>
			Created with Pixso.
	</desc>
	<g clip-path="url(#clip9_478)">
		<path d="M20.2051 3.64258L29.7803 3.64258C28.2373 3.2959 26.6357 3.11523 24.9902 3.11523C23.3447 3.12012 21.7432 3.30078 20.2051 3.64258Z" fill-rule="evenodd" fill="#00D995"/>
		<path d="M17.71 4.36035L32.2754 4.36523C31.4648 4.07715 30.6348 3.83789 29.7803 3.64746L20.2051 3.64746C19.3555 3.83301 18.5205 4.07227 17.71 4.36035Z" fill-rule="evenodd" fill="#01D996"/>
		<path d="M15.9375 5.07324L34.0479 5.07812C33.4717 4.81445 32.876 4.5752 32.2754 4.36035L17.71 4.35547C17.1094 4.57031 16.5137 4.80957 15.9375 5.07324L15.9375 5.07324Z" fill-rule="evenodd" fill="#01D997"/>
		<path d="M14.5068 5.79102L35.4736 5.7959C35.0098 5.54199 34.5312 5.30273 34.043 5.07812L15.9326 5.07324C15.4492 5.29785 14.9756 5.53223 14.5068 5.79102Z" fill-rule="evenodd" fill="#01D898"/>
		<path d="M13.2959 6.50391L36.6895 6.50879C36.2939 6.25977 35.8887 6.02051 35.4785 5.79102L14.5117 5.78613C14.0967 6.01562 13.6914 6.25488 13.2959 6.50391L13.2959 6.50391Z" fill-rule="evenodd" fill="#01D899"/>
		<path d="M12.2363 7.22168L37.749 7.22656C37.4023 6.97754 37.0508 6.73828 36.6895 6.50879L13.2959 6.50391C12.9346 6.7334 12.583 6.97266 12.2363 7.22168L12.2363 7.22168Z" fill-rule="evenodd" fill="#01D89A"/>
		<path d="M11.2939 7.93457L38.6865 7.93945C38.3789 7.69043 38.0664 7.45605 37.7441 7.22168L12.2314 7.2168C11.9189 7.45117 11.6016 7.69043 11.2939 7.93457Z" fill-rule="evenodd" fill="#01D79B"/>
		<path d="M10.4492 8.65234L39.5312 8.65723C39.2578 8.41309 38.9746 8.17383 38.6865 7.93945L11.2939 7.93457C11.0107 8.16895 10.7275 8.40332 10.4492 8.65234L10.4492 8.65234Z" fill-rule="evenodd" fill="#01D79C"/>
		<path d="M9.6875 9.36523L40.3027 9.37012C40.0537 9.12598 39.7998 8.88672 39.5361 8.65234L10.4541 8.64746C10.1904 8.88184 9.93652 9.12109 9.6875 9.36523L9.6875 9.36523Z" fill-rule="evenodd" fill="#02D79D"/>
		<path d="M8.98926 10.083L40.9961 10.0879C40.7666 9.84375 40.5371 9.60449 40.2979 9.37012L9.68262 9.36523C9.44824 9.59961 9.21387 9.83887 8.98926 10.083Z" fill-rule="evenodd" fill="#02D79E"/>
		<path d="M8.34961 10.7959L41.6309 10.8008C41.4258 10.5566 41.2109 10.3174 40.9961 10.083L8.98926 10.083C8.76953 10.3174 8.55957 10.5518 8.34961 10.7959L8.34961 10.7959Z" fill-rule="evenodd" fill="#02D69F"/>
		<path d="M7.76367 11.5137L42.2168 11.5186C42.0264 11.2744 41.8311 11.0352 41.6309 10.8008L8.34961 10.7959C8.14941 11.0303 7.9541 11.2695 7.76367 11.5137Z" fill-rule="evenodd" fill="#02D6A0"/>
		<path d="M7.22656 12.2266L42.7539 12.2314C42.5781 11.9873 42.4023 11.748 42.2168 11.5137L7.76367 11.5088C7.58301 11.748 7.40234 11.9873 7.22656 12.2266Z" fill-rule="evenodd" fill="#02D6A1"/>
		<path d="M6.7334 12.9443L43.2471 12.9492C43.0859 12.7051 42.9199 12.4707 42.7539 12.2314L7.22656 12.2266C7.06055 12.4609 6.89453 12.7002 6.7334 12.9443Z" fill-rule="evenodd" fill="#02D5A2"/>
		<path d="M6.2793 13.6572L43.7012 13.667C43.5547 13.4229 43.4033 13.1885 43.2471 12.9492L6.7334 12.9443C6.57715 13.1787 6.42578 13.418 6.2793 13.6572L6.2793 13.6572Z" fill-rule="evenodd" fill="#02D5A3"/>
		<path d="M5.86426 14.375L44.1162 14.3848C43.9795 14.1455 43.8428 13.9062 43.7012 13.667L6.2793 13.6572C6.1377 13.8965 6.00098 14.1309 5.86426 14.375L5.86426 14.375Z" fill-rule="evenodd" fill="#02D5A4"/>
		<path d="M5.4834 15.0879L44.4971 15.0977C44.375 14.8584 44.248 14.6191 44.1162 14.3799L5.86426 14.3701C5.73242 14.6094 5.60547 14.8486 5.4834 15.0879L5.4834 15.0879Z" fill-rule="evenodd" fill="#03D4A5"/>
		<path d="M5.13672 15.8057L44.8438 15.8154C44.7314 15.5762 44.6143 15.3369 44.4971 15.0977L5.4834 15.0879C5.36621 15.3271 5.24902 15.5664 5.13672 15.8057L5.13672 15.8057Z" fill-rule="evenodd" fill="#03D4A6"/>
		<path d="M4.81934 16.5186L45.1611 16.5283C45.0586 16.2891 44.9561 16.0498 44.8438 15.8105L5.13672 15.8008C5.0293 16.04 4.92188 16.2793 4.81934 16.5186L4.81934 16.5186Z" fill-rule="evenodd" fill="#03D4A7"/>
		<path d="M4.53613 17.2363L45.4492 17.2461C45.3564 17.0068 45.2637 16.7676 45.166 16.5283L4.82422 16.5186C4.72168 16.7578 4.62402 16.9971 4.53613 17.2363L4.53613 17.2363Z" fill-rule="evenodd" fill="#03D4A8"/>
		<path d="M4.27734 17.9541L45.7031 17.9639C45.6201 17.7246 45.5371 17.4854 45.4443 17.2461L4.53125 17.2363C4.44336 17.4707 4.36035 17.71 4.27734 17.9541L4.27734 17.9541Z" fill-rule="evenodd" fill="#03D3A9"/>
		<path d="M4.04785 18.667L45.9326 18.6768C45.8594 18.4375 45.7861 18.1982 45.7031 17.959L4.27734 17.9492C4.19922 18.1885 4.12109 18.4277 4.04785 18.667L4.04785 18.667Z" fill-rule="evenodd" fill="#03D3AA"/>
		<path d="M3.84766 19.3848L46.1328 19.3945C46.0693 19.1553 46.001 18.916 45.9326 18.6768L4.04785 18.667C3.97949 18.9062 3.91113 19.1406 3.84766 19.3848L3.84766 19.3848Z" fill-rule="evenodd" fill="#03D3AB"/>
		<path d="M3.67188 20.0977L46.3086 20.1074C46.2549 19.8682 46.1963 19.6289 46.1328 19.3896L3.84766 19.3799C3.78418 19.6191 3.72559 19.8584 3.67188 20.0977L3.67188 20.0977Z" fill-rule="evenodd" fill="#04D2AC"/>
		<path d="M3.52051 20.8154L46.46 20.8252C46.4111 20.5859 46.3623 20.3467 46.3086 20.1074L3.67188 20.0977C3.61816 20.3369 3.56445 20.5762 3.52051 20.8154L3.52051 20.8154Z" fill-rule="evenodd" fill="#04D2AD"/>
		<path d="M3.39355 21.5283L46.5869 21.5381C46.5479 21.2988 46.5088 21.0596 46.46 20.8203L3.52051 20.8105C3.47168 21.0498 3.43262 21.2891 3.39355 21.5283L3.39355 21.5283Z" fill-rule="evenodd" fill="#04D2AE"/>
		<path d="M3.29102 22.2461L46.6846 22.2559C46.6553 22.0166 46.6211 21.7773 46.582 21.5381L3.38867 21.5283C3.35449 21.7676 3.32031 22.0068 3.29102 22.2461L3.29102 22.2461Z" fill-rule="evenodd" fill="#04D1AF"/>
		<path d="M3.21289 22.959L46.7627 22.9688C46.7383 22.7295 46.7139 22.4902 46.6846 22.251L3.29102 22.2412C3.26172 22.4805 3.2373 22.7197 3.21289 22.959L3.21289 22.959Z" fill-rule="evenodd" fill="#04D1B0"/>
		<path d="M3.15918 23.6768L46.8164 23.6865C46.8018 23.4473 46.7822 23.208 46.7627 22.9736L3.21289 22.959C3.19336 23.1982 3.17383 23.4375 3.15918 23.6768L3.15918 23.6768Z" fill-rule="evenodd" fill="#04D1B1"/>
		<path d="M3.12988 24.3896L46.8457 24.3994C46.8408 24.1602 46.8311 23.9209 46.8164 23.6865L3.15918 23.6768C3.14453 23.916 3.13477 24.1504 3.12988 24.3896L3.12988 24.3896Z" fill-rule="evenodd" fill="#04D1B2"/>
		<path d="M3.12988 24.3896C3.125 24.585 3.12012 24.7852 3.12012 24.9854L3.12012 25.1074L46.8506 25.1172L46.8506 24.9854C46.8506 24.79 46.8457 24.5947 46.8408 24.3994L3.12988 24.3896Z" fill-rule="evenodd" fill="#05D0B3"/>
		<path d="M3.13965 25.8252L46.8408 25.835C46.8506 25.5957 46.8555 25.3564 46.8555 25.1172L3.125 25.1074C3.125 25.3467 3.12988 25.5859 3.13965 25.8252Z" fill-rule="evenodd" fill="#05D0B4"/>
		<path d="M3.17871 26.5381L46.8018 26.5479C46.8164 26.3086 46.8311 26.0693 46.8408 25.8301L3.13965 25.8203C3.14453 26.0645 3.15918 26.2988 3.17871 26.5381L3.17871 26.5381Z" fill-rule="evenodd" fill="#05D0B5"/>
		<path d="M3.2373 27.2559L46.7383 27.2656C46.7627 27.0264 46.7822 26.7871 46.8018 26.5479L3.17871 26.5381C3.19336 26.7773 3.21289 27.0166 3.2373 27.2559L3.2373 27.2559Z" fill-rule="evenodd" fill="#05CFB6"/>
		<path d="M3.3252 27.9688L46.6553 27.9785C46.6895 27.7393 46.7139 27.5 46.7432 27.2607L3.24219 27.251C3.26172 27.4951 3.29102 27.7344 3.3252 27.9688L3.3252 27.9688Z" fill-rule="evenodd" fill="#05CFB7"/>
		<path d="M3.43262 28.6865L46.543 28.6963C46.582 28.457 46.6211 28.2227 46.6553 27.9785L3.3252 27.9688C3.35449 28.208 3.39355 28.4473 3.43262 28.6865L3.43262 28.6865Z" fill-rule="evenodd" fill="#05CFB8"/>
		<path d="M3.56934 29.3994L46.4111 29.4092C46.46 29.1699 46.5039 28.9355 46.5479 28.6914L3.43262 28.6865C3.47656 28.9258 3.52051 29.165 3.56934 29.3994L3.56934 29.3994Z" fill-rule="evenodd" fill="#05CEB9"/>
		<path d="M3.72559 30.1172L46.2451 30.127C46.3037 29.8926 46.3574 29.6533 46.4062 29.4092L3.56445 29.3994L3.72559 30.1172Z" fill-rule="evenodd" fill="#06CEBA"/>
		<path d="M3.91113 30.8301L46.0596 30.8398C46.123 30.6055 46.1865 30.3662 46.2451 30.1221L3.72559 30.1123C3.78418 30.3564 3.84766 30.5957 3.91113 30.8301L3.91113 30.8301Z" fill-rule="evenodd" fill="#06CEBB"/>
		<path d="M4.12109 31.5479L45.8496 31.5576C45.9229 31.3232 45.9961 31.084 46.0596 30.8398L3.91113 30.8301C3.97949 31.0742 4.04785 31.3086 4.12109 31.5479L4.12109 31.5479Z" fill-rule="evenodd" fill="#06CEBD"/>
		<path d="M4.36035 32.2607L45.6104 32.2705C45.6934 32.0361 45.7715 31.7969 45.8496 31.5527L4.12109 31.543C4.19922 31.7871 4.27734 32.0264 4.36035 32.2607Z" fill-rule="evenodd" fill="#06CDBE"/>
		<path d="M4.62891 32.9785L45.3467 32.9883C45.4395 32.7539 45.5273 32.5146 45.6152 32.2705L4.36523 32.2607C4.44824 32.5049 4.53613 32.7441 4.62891 32.9785L4.62891 32.9785Z" fill-rule="evenodd" fill="#06CDBF"/>
		<path d="M4.92676 33.6963L45.0537 33.7061C45.1562 33.4717 45.2539 33.2324 45.3516 32.9883L4.62891 32.9785C4.72168 33.2178 4.82422 33.457 4.92676 33.6963L4.92676 33.6963Z" fill-rule="evenodd" fill="#06CDC0"/>
		<path d="M5.24902 34.4092L44.7217 34.4189C44.834 34.1846 44.9414 33.9453 45.0488 33.7012L4.92188 33.6914C5.0293 33.9355 5.13672 34.1748 5.24902 34.4092L5.24902 34.4092Z" fill-rule="evenodd" fill="#06CCC1"/>
		<path d="M5.61035 35.127L44.3652 35.1367C44.4873 34.9023 44.6094 34.6631 44.7217 34.4189L5.24902 34.4092C5.36621 34.6533 5.48828 34.8877 5.61035 35.127Z" fill-rule="evenodd" fill="#07CCC2"/>
		<path d="M6.00098 35.8398L43.9697 35.8496C44.1064 35.6152 44.2383 35.376 44.3604 35.1318L5.60547 35.1221C5.7373 35.3662 5.86914 35.6055 6.00098 35.8398L6.00098 35.8398Z" fill-rule="evenodd" fill="#07CCC3"/>
		<path d="M6.43066 36.5576L43.5449 36.5674C43.6914 36.333 43.833 36.0938 43.9746 35.8496L6.00586 35.8398C6.14258 36.084 6.28418 36.3232 6.43066 36.5576Z" fill-rule="evenodd" fill="#07CBC4"/>
		<path d="M6.89941 37.2705L43.0762 37.2803C43.2373 37.0459 43.3936 36.8066 43.5449 36.5625L6.43066 36.5527C6.58203 36.7969 6.73828 37.0361 6.89941 37.2705L6.89941 37.2705Z" fill-rule="evenodd" fill="#07CBC5"/>
		<path d="M7.40723 37.9883L42.5684 37.998C42.7441 37.7637 42.9102 37.5244 43.0762 37.2803L6.89941 37.2705C7.06055 37.5146 7.23145 37.7539 7.40723 37.9883L7.40723 37.9883Z" fill-rule="evenodd" fill="#07CBC6"/>
		<path d="M7.95898 38.7061L42.0117 38.7109C42.2021 38.4766 42.3877 38.2373 42.5635 37.9932L7.40234 37.9834C7.58301 38.2324 7.76855 38.4717 7.95898 38.7061L7.95898 38.7061Z" fill-rule="evenodd" fill="#07CBC7"/>
		<path d="M8.55957 39.4189L41.4062 39.4238C41.6113 39.1895 41.8115 38.9502 42.0117 38.7061L7.95898 38.7012C8.1543 38.9453 8.35449 39.1846 8.55957 39.4189Z" fill-rule="evenodd" fill="#07CAC8"/>
		<path d="M9.21875 40.1367L40.752 40.1416C40.9766 39.9072 41.1963 39.668 41.4111 39.4238L8.56445 39.4189C8.77441 39.6631 8.99414 39.9023 9.21875 40.1367L9.21875 40.1367Z" fill-rule="evenodd" fill="#08CAC9"/>
		<path d="M9.94141 40.8496L40.0342 40.8545C40.2783 40.6201 40.5225 40.3809 40.7568 40.1367L9.21875 40.1367C9.45312 40.3809 9.69238 40.6201 9.94141 40.8496L9.94141 40.8496Z" fill-rule="evenodd" fill="#08CACA"/>
		<path d="M10.7324 41.5674L39.2383 41.5723C39.5068 41.3379 39.7705 41.1035 40.0293 40.8545L9.93652 40.8496C10.1953 41.0938 10.4639 41.333 10.7324 41.5674Z" fill-rule="evenodd" fill="#08C9CB"/>
		<path d="M11.6064 42.2803L38.3594 42.2852C38.6572 42.0557 38.9502 41.8164 39.2383 41.5674L10.7324 41.5674C11.0156 41.8115 11.3086 42.0508 11.6064 42.2803Z" fill-rule="evenodd" fill="#08C9CC"/>
		<path d="M12.1143 42.6611L37.8564 42.666C38.0273 42.5439 38.1982 42.4121 38.3643 42.2852L11.6113 42.2803C11.7725 42.4121 11.9434 42.5391 12.1143 42.6611L12.1143 42.6611ZM24.9902 46.8555C29.7998 46.8555 34.248 45.3027 37.8564 42.6709L12.1143 42.666C15.7275 45.2979 20.1758 46.8555 24.9902 46.8555Z" fill-rule="evenodd" fill="#08C9CC"/>
		<path d="M14.0088 23.4961C12.5879 23.4961 11.4307 24.6484 11.4307 26.0693L11.4307 28.1982L38.5596 28.1982L38.5596 26.0693C38.5596 24.6484 37.4072 23.4961 35.9863 23.4961L14.0088 23.4961Z" fill-rule="evenodd" fill="#FFFFFF"/>
		<path d="M38.5547 25.8691L11.4453 25.8154C11.4453 25.835 11.4404 25.8594 11.4404 25.8789L38.5596 25.9326C38.5596 25.9131 38.5596 25.8887 38.5547 25.8691Z" fill-rule="evenodd" fill="#FFFFFF"/>
		<path d="M38.5498 25.8008L11.4551 25.7471C11.4502 25.7666 11.4502 25.791 11.4453 25.8105L38.5547 25.8643C38.5547 25.8447 38.5547 25.8252 38.5498 25.8008Z" fill-rule="evenodd" fill="#FDFFFF"/>
		<path d="M38.5449 25.7373L11.4648 25.6836C11.46 25.7031 11.46 25.7275 11.4551 25.7471L38.5498 25.8008C38.5498 25.7812 38.5449 25.7617 38.5449 25.7373Z" fill-rule="evenodd" fill="#FBFFFE"/>
		<path d="M38.5352 25.6738L11.4746 25.6201C11.4697 25.6396 11.4648 25.6641 11.4648 25.6836L38.5449 25.7373C38.54 25.7178 38.54 25.6934 38.5352 25.6738L38.5352 25.6738Z" fill-rule="evenodd" fill="#FAFFFE"/>
		<path d="M38.5205 25.6055L11.4844 25.5518C11.4795 25.5713 11.4746 25.5957 11.4746 25.6152L38.5352 25.6689C38.5303 25.6494 38.5254 25.6299 38.5205 25.6055Z" fill-rule="evenodd" fill="#F8FFFE"/>
		<path d="M38.5107 25.542L11.5039 25.4883C11.499 25.5078 11.4941 25.5322 11.4893 25.5518L38.5254 25.6055C38.5205 25.5859 38.5156 25.5615 38.5107 25.542Z" fill-rule="evenodd" fill="#F6FEFD"/>
		<path d="M38.4961 25.4736L11.5186 25.4199C11.5137 25.4395 11.5088 25.4639 11.5039 25.4834L38.5107 25.5371C38.5059 25.5176 38.501 25.498 38.4961 25.4736Z" fill-rule="evenodd" fill="#F4FEFD"/>
		<path d="M38.4814 25.4102L11.5381 25.3564C11.5332 25.376 11.5234 25.4004 11.5186 25.4199L38.4961 25.4736C38.4912 25.4541 38.4863 25.4297 38.4814 25.4102Z" fill-rule="evenodd" fill="#F3FEFD"/>
		<path d="M38.4619 25.3467L11.5576 25.293C11.5527 25.3125 11.543 25.3369 11.5381 25.3564L38.4814 25.4102C38.4717 25.3857 38.4668 25.3662 38.4619 25.3467L38.4619 25.3467Z" fill-rule="evenodd" fill="#F1FEFC"/>
		<path d="M38.4424 25.2783L11.5771 25.2246C11.5674 25.2441 11.5625 25.2686 11.5527 25.2881L38.457 25.3418C38.4521 25.3223 38.4473 25.3027 38.4424 25.2783Z" fill-rule="evenodd" fill="#EFFEFC"/>
		<path d="M38.418 25.2148L11.6016 25.1611C11.5918 25.1807 11.5869 25.2051 11.5771 25.2246L38.4424 25.2783C38.4326 25.2588 38.4277 25.2344 38.418 25.2148Z" fill-rule="evenodd" fill="#EDFEFB"/>
		<path d="M38.3936 25.1465L11.626 25.0928C11.6162 25.1123 11.6064 25.1367 11.6016 25.1562L38.418 25.21C38.4131 25.1904 38.4033 25.1709 38.3936 25.1465Z" fill-rule="evenodd" fill="#EBFEFB"/>
		<path d="M38.3691 25.083L11.6553 25.0293C11.6455 25.0488 11.6357 25.0732 11.626 25.0928L38.3936 25.1465C38.3838 25.127 38.3789 25.1025 38.3691 25.083L38.3691 25.083Z" fill-rule="evenodd" fill="#EAFEFB"/>
		<path d="M38.3398 25.0146L11.6846 24.9609C11.6748 24.9805 11.665 25.0049 11.6553 25.0244L38.3691 25.0781C38.3594 25.0586 38.3496 25.0391 38.3398 25.0146L38.3398 25.0146Z" fill-rule="evenodd" fill="#E8FDFA"/>
		<path d="M38.3105 24.9512L11.7188 24.8975C11.709 24.917 11.6943 24.9414 11.6846 24.9609L38.3398 25.0146C38.3301 24.9951 38.3203 24.9707 38.3105 24.9512Z" fill-rule="evenodd" fill="#E6FDFA"/>
		<path d="M38.2764 24.8877L11.7529 24.834C11.7432 24.8535 11.7285 24.8779 11.7188 24.8975L38.3105 24.9512C38.3008 24.9316 38.2861 24.9072 38.2764 24.8877Z" fill-rule="evenodd" fill="#E4FDFA"/>
		<path d="M38.2422 24.8193L11.792 24.7656C11.7773 24.7852 11.7676 24.8096 11.7529 24.8291L38.2764 24.8828C38.2666 24.8633 38.252 24.8438 38.2422 24.8193Z" fill-rule="evenodd" fill="#E3FDF9"/>
		<path d="M38.2031 24.7559L11.8262 24.7021C11.8115 24.7217 11.7969 24.7461 11.7871 24.7656L38.2373 24.8193C38.2275 24.7998 38.2178 24.7754 38.2031 24.7559Z" fill-rule="evenodd" fill="#E1FDF9"/>
		<path d="M38.1641 24.6875L11.8701 24.6338C11.8555 24.6533 11.8408 24.6777 11.8262 24.6973L38.2031 24.751C38.1885 24.7314 38.1787 24.7119 38.1641 24.6875Z" fill-rule="evenodd" fill="#DFFDF9"/>
		<path d="M38.1201 24.624L11.9189 24.5703C11.9043 24.5898 11.8896 24.6143 11.875 24.6338L38.1689 24.6875C38.1494 24.668 38.1348 24.6436 38.1201 24.624L38.1201 24.624Z" fill-rule="evenodd" fill="#DDFDF8"/>
		<path d="M38.0713 24.5605L11.9629 24.5068C11.9482 24.5264 11.9287 24.5508 11.9141 24.5703L38.1152 24.624C38.1055 24.5996 38.0908 24.5801 38.0713 24.5605L38.0713 24.5605Z" fill-rule="evenodd" fill="#DBFDF8"/>
		<path d="M38.0225 24.4922L12.0166 24.4385C11.9971 24.458 11.9824 24.4824 11.9629 24.502L38.0713 24.5557C38.0566 24.5361 38.042 24.5166 38.0225 24.4922L38.0225 24.4922Z" fill-rule="evenodd" fill="#DAFCF8"/>
		<path d="M37.9736 24.4287L12.0752 24.375C12.0557 24.3945 12.0361 24.4189 12.0215 24.4385L38.0273 24.4922C38.0078 24.4727 37.9883 24.4482 37.9736 24.4287L37.9736 24.4287Z" fill-rule="evenodd" fill="#D8FCF7"/>
		<path d="M37.915 24.3604L12.1338 24.3066C12.1143 24.3262 12.0947 24.3506 12.0752 24.3701L37.9736 24.4238C37.9541 24.4043 37.9346 24.3848 37.915 24.3604Z" fill-rule="evenodd" fill="#D6FCF7"/>
		<path d="M37.8564 24.2969L12.1973 24.2432L12.1338 24.3066L37.915 24.3604C37.8955 24.3408 37.876 24.3164 37.8564 24.2969Z" fill-rule="evenodd" fill="#D4FCF7"/>
		<path d="M37.7881 24.2285L12.2607 24.1797C12.2363 24.1992 12.2168 24.2236 12.1924 24.2432L37.8516 24.2969C37.832 24.2725 37.8125 24.2529 37.7881 24.2285L37.7881 24.2285Z" fill-rule="evenodd" fill="#D3FCF6"/>
		<path d="M37.7197 24.165L12.334 24.1162C12.3096 24.1357 12.2852 24.1602 12.2607 24.1797L37.7881 24.2285C37.7686 24.209 37.7441 24.1846 37.7197 24.165L37.7197 24.165Z" fill-rule="evenodd" fill="#D1FCF6"/>
		<path d="M37.6465 24.0967L12.417 24.0479C12.3877 24.0674 12.3633 24.0918 12.3389 24.1113L37.7246 24.1602C37.6953 24.1406 37.6709 24.1211 37.6465 24.0967Z" fill-rule="evenodd" fill="#CFFCF5"/>
		<path d="M37.5635 24.0332L12.5049 23.9844C12.4756 24.0039 12.4463 24.0283 12.417 24.0479L37.6465 24.0967C37.6172 24.0771 37.5928 24.0527 37.5635 24.0332Z" fill-rule="evenodd" fill="#CDFCF5"/>
		<path d="M37.4756 23.9697L12.5977 23.9209C12.5635 23.9404 12.5342 23.9648 12.5049 23.9844L37.5635 24.0332C37.5342 24.0088 37.5049 23.9893 37.4756 23.9697L37.4756 23.9697Z" fill-rule="evenodd" fill="#CCFBF5"/>
		<path d="M37.3779 23.9014L12.7051 23.8525C12.6709 23.8721 12.6367 23.8965 12.6025 23.916L37.4805 23.9648C37.4414 23.9453 37.4121 23.9258 37.3779 23.9014Z" fill-rule="evenodd" fill="#CAFBF4"/>
		<path d="M37.2705 23.8379L12.8223 23.7891C12.7832 23.8086 12.7441 23.833 12.7051 23.8525L37.3779 23.9014C37.3438 23.8818 37.3047 23.8574 37.2705 23.8379Z" fill-rule="evenodd" fill="#C8FBF4"/>
		<path d="M37.1484 23.7695L12.9541 23.7207C12.9102 23.7402 12.8613 23.7646 12.8174 23.7842L37.2656 23.833C37.2314 23.8135 37.1875 23.7939 37.1484 23.7695Z" fill-rule="evenodd" fill="#C6FBF4"/>
		<path d="M37.0068 23.7061L13.1104 23.6572C13.0566 23.6768 13.0029 23.7012 12.9541 23.7207L37.1484 23.7695C37.0996 23.75 37.0557 23.7256 37.0068 23.7061Z" fill-rule="evenodd" fill="#C5FBF3"/>
		<path d="M36.8359 23.6377L13.3154 23.5889C13.2471 23.6084 13.1787 23.6279 13.1152 23.6523L37.0117 23.7012C36.9531 23.6816 36.8945 23.6572 36.8359 23.6377Z" fill-rule="evenodd" fill="#C3FBF3"/>
		<path d="M36.6162 23.5742L13.6084 23.5303C13.5059 23.5449 13.4082 23.5693 13.3105 23.5938L36.8311 23.6426C36.7627 23.6133 36.6895 23.5938 36.6162 23.5742Z" fill-rule="evenodd" fill="#C1FBF3"/>
		<path d="M36.2207 23.5059L30.8789 23.4961L14.0088 23.4961C13.8721 23.4961 13.7402 23.5059 13.6084 23.5254L36.6162 23.5693C36.4893 23.54 36.3574 23.5205 36.2207 23.5059L36.2207 23.5059Z" fill-rule="evenodd" fill="#BFFBF2"/>
		<path d="M35.9912 23.4961L30.874 23.4961L36.2158 23.5059C36.1426 23.501 36.0693 23.4961 35.9912 23.4961Z" fill-rule="evenodd" fill="#BEFBF2"/>
		<path d="M38.5645 29.1797L11.4307 29.1797L11.4307 33.5938C11.4307 33.916 11.6895 34.1748 12.0117 34.1748L16.2939 34.1748C16.6162 34.1748 16.875 33.916 16.875 33.5938L16.875 32.4707L33.1152 32.4707L33.1152 33.5938C33.1152 33.916 33.374 34.1748 33.6963 34.1748L37.9736 34.1748C38.2959 34.1748 38.5547 33.916 38.5547 33.5938L38.5645 29.1797L38.5645 29.1797ZM34.043 14.9707L15.957 14.9707C14.5117 14.9707 13.335 16.1426 13.335 17.5928L13.335 22.1582C13.335 22.4805 13.5938 22.7393 13.916 22.7393L18.6816 22.7393L18.6816 20.3076C18.6816 19.8242 19.0723 19.4336 19.5557 19.4336L30.4395 19.4336C30.9229 19.4336 31.3135 19.8242 31.3135 20.3076L31.3135 22.7393L36.0742 22.7393C36.3965 22.7393 36.6553 22.4805 36.6553 22.1582L36.6553 17.5928C36.6602 16.1426 35.4883 14.9707 34.043 14.9707Z" fill-rule="evenodd" fill="#FFFFFF"/>
	</g>
	<defs>
		<clipPath id="clip9_478">
			<rect width="50.000000" height="50.000000" fill="white"/>
		</clipPath>
	</defs>
</svg>
