<svg width="50.000000" height="50.000000" viewBox="0 0 50 50" fill="none" xmlns="http://www.w3.org/2000/svg" xmlns:xlink="http://www.w3.org/1999/xlink">
	<desc>
			Created with Pixso.
	</desc>
	<g clip-path="url(#clip9_314)">
		<path d="M20.1807 3.66699L29.7559 3.66699C28.2129 3.32031 26.6113 3.13965 24.9658 3.13965C23.3203 3.14453 21.7188 3.3252 20.1807 3.66699L20.1807 3.66699Z" fill-rule="evenodd" fill="#00D995"/>
		<path d="M17.6855 4.38477L32.251 4.38965C31.4404 4.10156 30.6104 3.8623 29.7559 3.67188L20.1807 3.67188C19.3311 3.85742 18.4961 4.09668 17.6855 4.38477Z" fill-rule="evenodd" fill="#01D996"/>
		<path d="M15.9131 5.09766L34.0234 5.10254C33.4473 4.83887 32.8516 4.59961 32.251 4.38477L17.6855 4.37988C17.085 4.59473 16.4893 4.83398 15.9131 5.09766L15.9131 5.09766Z" fill-rule="evenodd" fill="#01D997"/>
		<path d="M14.4824 5.81543L35.4492 5.82031C34.9854 5.56641 34.5068 5.32715 34.0186 5.10254L15.9082 5.09766C15.4248 5.32227 14.9512 5.55664 14.4824 5.81543Z" fill-rule="evenodd" fill="#01D898"/>
		<path d="M13.2715 6.52832L36.665 6.5332C36.2695 6.28418 35.8643 6.04492 35.4541 5.81543L14.4873 5.81055C14.0723 6.04004 13.667 6.2793 13.2715 6.52832L13.2715 6.52832Z" fill-rule="evenodd" fill="#01D899"/>
		<path d="M12.2119 7.24609L37.7246 7.25098C37.3779 7.00195 37.0264 6.7627 36.665 6.5332L13.2715 6.52832C12.9102 6.75781 12.5586 6.99707 12.2119 7.24609L12.2119 7.24609Z" fill-rule="evenodd" fill="#01D89A"/>
		<path d="M11.2695 7.95898L38.6621 7.96387C38.3545 7.71484 38.042 7.48047 37.7197 7.24609L12.207 7.24121C11.8945 7.47559 11.5771 7.71484 11.2695 7.95898Z" fill-rule="evenodd" fill="#01D79B"/>
		<path d="M10.4248 8.67676L39.5068 8.68164C39.2334 8.4375 38.9502 8.19824 38.6621 7.96387L11.2695 7.95898C10.9863 8.19336 10.7031 8.42773 10.4248 8.67676L10.4248 8.67676Z" fill-rule="evenodd" fill="#01D79C"/>
		<path d="M9.66309 9.38965L40.2783 9.39453C40.0293 9.15039 39.7754 8.91113 39.5117 8.67676L10.4297 8.67188C10.166 8.90625 9.91211 9.14551 9.66309 9.38965L9.66309 9.38965Z" fill-rule="evenodd" fill="#02D79D"/>
		<path d="M8.96484 10.1074L40.9717 10.1123C40.7422 9.86816 40.5127 9.62891 40.2734 9.39453L9.6582 9.38965C9.42383 9.62402 9.18945 9.86328 8.96484 10.1074Z" fill-rule="evenodd" fill="#02D79E"/>
		<path d="M8.3252 10.8203L41.6064 10.8252C41.4014 10.5811 41.1865 10.3418 40.9717 10.1074L8.96484 10.1074C8.74512 10.3418 8.53516 10.5762 8.3252 10.8203L8.3252 10.8203Z" fill-rule="evenodd" fill="#02D69F"/>
		<path d="M7.73926 11.5381L42.1924 11.543C42.002 11.2988 41.8066 11.0596 41.6064 10.8252L8.3252 10.8203C8.125 11.0547 7.92969 11.2939 7.73926 11.5381Z" fill-rule="evenodd" fill="#02D6A0"/>
		<path d="M7.20215 12.251L42.7295 12.2559C42.5537 12.0117 42.3779 11.7725 42.1924 11.5381L7.73926 11.5332C7.55859 11.7725 7.37793 12.0117 7.20215 12.251Z" fill-rule="evenodd" fill="#02D6A1"/>
		<path d="M6.70898 12.9688L43.2227 12.9736C43.0615 12.7295 42.8955 12.4951 42.7295 12.2559L7.20215 12.251C7.03613 12.4854 6.87012 12.7246 6.70898 12.9688Z" fill-rule="evenodd" fill="#02D5A2"/>
		<path d="M6.25488 13.6816L43.6768 13.6914C43.5303 13.4473 43.3789 13.2129 43.2227 12.9736L6.70898 12.9688C6.55273 13.2031 6.40137 13.4424 6.25488 13.6816L6.25488 13.6816Z" fill-rule="evenodd" fill="#02D5A3"/>
		<path d="M5.83984 14.3994L44.0918 14.4092C43.9551 14.1699 43.8184 13.9307 43.6768 13.6914L6.25488 13.6816C6.11328 13.9209 5.97656 14.1553 5.83984 14.3994L5.83984 14.3994Z" fill-rule="evenodd" fill="#02D5A4"/>
		<path d="M5.45898 15.1123L44.4727 15.1221C44.3506 14.8828 44.2236 14.6436 44.0918 14.4043L5.83984 14.3945C5.70801 14.6338 5.58105 14.873 5.45898 15.1123L5.45898 15.1123Z" fill-rule="evenodd" fill="#03D4A5"/>
		<path d="M5.1123 15.8301L44.8193 15.8398C44.707 15.6006 44.5898 15.3613 44.4727 15.1221L5.45898 15.1123C5.3418 15.3516 5.22461 15.5908 5.1123 15.8301L5.1123 15.8301Z" fill-rule="evenodd" fill="#03D4A6"/>
		<path d="M4.79492 16.543L45.1367 16.5527C45.0342 16.3135 44.9316 16.0742 44.8193 15.835L5.1123 15.8252C5.00488 16.0645 4.89746 16.3037 4.79492 16.543L4.79492 16.543Z" fill-rule="evenodd" fill="#03D4A7"/>
		<path d="M4.51172 17.2607L45.4248 17.2705C45.332 17.0312 45.2393 16.792 45.1416 16.5527L4.7998 16.543C4.69727 16.7822 4.59961 17.0215 4.51172 17.2607L4.51172 17.2607Z" fill-rule="evenodd" fill="#03D4A8"/>
		<path d="M4.25293 17.9785L45.6787 17.9883C45.5957 17.749 45.5127 17.5098 45.4199 17.2705L4.50684 17.2607C4.41895 17.4951 4.33594 17.7344 4.25293 17.9785L4.25293 17.9785Z" fill-rule="evenodd" fill="#03D3A9"/>
		<path d="M4.02344 18.6914L45.9082 18.7012C45.835 18.4619 45.7617 18.2227 45.6787 17.9834L4.25293 17.9736C4.1748 18.2129 4.09668 18.4521 4.02344 18.6914L4.02344 18.6914Z" fill-rule="evenodd" fill="#03D3AA"/>
		<path d="M3.82324 19.4092L46.1084 19.4189C46.0449 19.1797 45.9766 18.9404 45.9082 18.7012L4.02344 18.6914C3.95508 18.9307 3.88672 19.165 3.82324 19.4092L3.82324 19.4092Z" fill-rule="evenodd" fill="#03D3AB"/>
		<path d="M3.64746 20.1221L46.2842 20.1318C46.2305 19.8926 46.1719 19.6533 46.1084 19.4141L3.82324 19.4043C3.75977 19.6436 3.70117 19.8828 3.64746 20.1221L3.64746 20.1221Z" fill-rule="evenodd" fill="#04D2AC"/>
		<path d="M3.49609 20.8398L46.4355 20.8496C46.3867 20.6104 46.3379 20.3711 46.2842 20.1318L3.64746 20.1221C3.59375 20.3613 3.54004 20.6006 3.49609 20.8398L3.49609 20.8398Z" fill-rule="evenodd" fill="#04D2AD"/>
		<path d="M3.36914 21.5527L46.5625 21.5625C46.5234 21.3232 46.4844 21.084 46.4355 20.8447L3.49609 20.835C3.44727 21.0742 3.4082 21.3135 3.36914 21.5527L3.36914 21.5527Z" fill-rule="evenodd" fill="#04D2AE"/>
		<path d="M3.2666 22.2705L46.6602 22.2803C46.6309 22.041 46.5967 21.8018 46.5576 21.5625L3.36426 21.5527C3.33008 21.792 3.2959 22.0312 3.2666 22.2705L3.2666 22.2705Z" fill-rule="evenodd" fill="#04D1AF"/>
		<path d="M3.18848 22.9834L46.7383 22.9932C46.7139 22.7539 46.6895 22.5146 46.6602 22.2754L3.2666 22.2656C3.2373 22.5049 3.21289 22.7441 3.18848 22.9834Z" fill-rule="evenodd" fill="#04D1B0"/>
		<path d="M3.13477 23.7012L46.792 23.7109C46.7773 23.4717 46.7578 23.2324 46.7383 22.998L3.18848 22.9834C3.16895 23.2227 3.14941 23.4619 3.13477 23.7012L3.13477 23.7012Z" fill-rule="evenodd" fill="#04D1B1"/>
		<path d="M3.10547 24.4141L46.8213 24.4238C46.8164 24.1846 46.8066 23.9453 46.792 23.7109L3.13477 23.7012C3.12012 23.9404 3.11035 24.1748 3.10547 24.4141L3.10547 24.4141Z" fill-rule="evenodd" fill="#04D1B2"/>
		<path d="M3.10547 24.4141C3.10059 24.6094 3.0957 24.8096 3.0957 25.0098L3.0957 25.1318L46.8262 25.1416L46.8262 25.0098C46.8262 24.8145 46.8213 24.6191 46.8164 24.4238L3.10547 24.4141Z" fill-rule="evenodd" fill="#05D0B3"/>
		<path d="M3.11523 25.8496L46.8164 25.8594C46.8262 25.6201 46.8311 25.3809 46.8311 25.1416L3.10059 25.1318C3.10059 25.3711 3.10547 25.6104 3.11523 25.8496Z" fill-rule="evenodd" fill="#05D0B4"/>
		<path d="M3.1543 26.5625L46.7773 26.5723C46.792 26.333 46.8066 26.0938 46.8164 25.8545L3.11523 25.8447C3.12012 26.0889 3.13477 26.3232 3.1543 26.5625L3.1543 26.5625Z" fill-rule="evenodd" fill="#05D0B5"/>
		<path d="M3.21289 27.2803L46.7139 27.29C46.7383 27.0508 46.7578 26.8115 46.7773 26.5723L3.1543 26.5625C3.16895 26.8018 3.18848 27.041 3.21289 27.2803L3.21289 27.2803Z" fill-rule="evenodd" fill="#05CFB6"/>
		<path d="M3.30078 27.9932L46.6309 28.0029C46.665 27.7637 46.6895 27.5244 46.7188 27.2852L3.21777 27.2754C3.2373 27.5195 3.2666 27.7588 3.30078 27.9932L3.30078 27.9932Z" fill-rule="evenodd" fill="#05CFB7"/>
		<path d="M3.4082 28.7109L46.5186 28.7207C46.5576 28.4814 46.5967 28.2471 46.6309 28.0029L3.30078 27.9932C3.33008 28.2324 3.36914 28.4717 3.4082 28.7109L3.4082 28.7109Z" fill-rule="evenodd" fill="#05CFB8"/>
		<path d="M3.54492 29.4238L46.3867 29.4336C46.4355 29.1943 46.4795 28.96 46.5234 28.7158L3.4082 28.7109C3.45215 28.9502 3.49609 29.1895 3.54492 29.4238L3.54492 29.4238Z" fill-rule="evenodd" fill="#05CEB9"/>
		<path d="M3.70117 30.1416L46.2207 30.1514C46.2793 29.917 46.333 29.6777 46.3818 29.4336L3.54004 29.4238L3.70117 30.1416L3.70117 30.1416Z" fill-rule="evenodd" fill="#06CEBA"/>
		<path d="M3.88672 30.8545L46.0352 30.8643C46.0986 30.6299 46.1621 30.3906 46.2207 30.1465L3.70117 30.1367C3.75977 30.3809 3.82324 30.6201 3.88672 30.8545L3.88672 30.8545Z" fill-rule="evenodd" fill="#06CEBB"/>
		<path d="M4.09668 31.5723L45.8252 31.582C45.8984 31.3477 45.9717 31.1084 46.0352 30.8643L3.88672 30.8545C3.95508 31.0986 4.02344 31.333 4.09668 31.5723L4.09668 31.5723Z" fill-rule="evenodd" fill="#06CEBD"/>
		<path d="M4.33594 32.2852L45.5859 32.2949C45.6689 32.0605 45.7471 31.8213 45.8252 31.5771L4.09668 31.5674C4.1748 31.8115 4.25293 32.0508 4.33594 32.2852L4.33594 32.2852Z" fill-rule="evenodd" fill="#06CDBE"/>
		<path d="M4.60449 33.0029L45.3223 33.0127C45.415 32.7783 45.5029 32.5391 45.5908 32.2949L4.34082 32.2852C4.42383 32.5293 4.51172 32.7686 4.60449 33.0029L4.60449 33.0029Z" fill-rule="evenodd" fill="#06CDBF"/>
		<path d="M4.90234 33.7207L45.0293 33.7305C45.1318 33.4961 45.2295 33.2568 45.3271 33.0127L4.60449 33.0029C4.69727 33.2422 4.7998 33.4814 4.90234 33.7207L4.90234 33.7207Z" fill-rule="evenodd" fill="#06CDC0"/>
		<path d="M5.22461 34.4336L44.6973 34.4434C44.8096 34.209 44.917 33.9697 45.0244 33.7256L4.89746 33.7158C5.00488 33.96 5.1123 34.1992 5.22461 34.4336L5.22461 34.4336Z" fill-rule="evenodd" fill="#06CCC1"/>
		<path d="M5.58594 35.1514L44.3408 35.1611C44.4629 34.9268 44.585 34.6875 44.6973 34.4434L5.22461 34.4336C5.3418 34.6777 5.46387 34.9121 5.58594 35.1514Z" fill-rule="evenodd" fill="#07CCC2"/>
		<path d="M5.97656 35.8643L43.9453 35.874C44.082 35.6396 44.2139 35.4004 44.3359 35.1562L5.58105 35.1465C5.71289 35.3906 5.84473 35.6299 5.97656 35.8643L5.97656 35.8643Z" fill-rule="evenodd" fill="#07CCC3"/>
		<path d="M6.40625 36.582L43.5205 36.5918C43.667 36.3574 43.8086 36.1182 43.9502 35.874L5.98145 35.8643C6.11816 36.1084 6.25977 36.3477 6.40625 36.582Z" fill-rule="evenodd" fill="#07CBC4"/>
		<path d="M6.875 37.2949L43.0518 37.3047C43.2129 37.0703 43.3691 36.8311 43.5205 36.5869L6.40625 36.5771C6.55762 36.8213 6.71387 37.0605 6.875 37.2949L6.875 37.2949Z" fill-rule="evenodd" fill="#07CBC5"/>
		<path d="M7.38281 38.0127L42.5439 38.0225C42.7197 37.7881 42.8857 37.5488 43.0518 37.3047L6.875 37.2949C7.03613 37.5391 7.20703 37.7783 7.38281 38.0127L7.38281 38.0127Z" fill-rule="evenodd" fill="#07CBC6"/>
		<path d="M7.93457 38.7305L41.9873 38.7354C42.1777 38.501 42.3633 38.2617 42.5391 38.0176L7.37793 38.0078C7.55859 38.2568 7.74414 38.4961 7.93457 38.7305L7.93457 38.7305Z" fill-rule="evenodd" fill="#07CBC7"/>
		<path d="M8.53516 39.4434L41.3818 39.4482C41.5869 39.2139 41.7871 38.9746 41.9873 38.7305L7.93457 38.7256C8.12988 38.9697 8.33008 39.209 8.53516 39.4434Z" fill-rule="evenodd" fill="#07CAC8"/>
		<path d="M9.19434 40.1611L40.7275 40.166C40.9521 39.9316 41.1719 39.6924 41.3867 39.4482L8.54004 39.4434C8.75 39.6875 8.96973 39.9268 9.19434 40.1611L9.19434 40.1611Z" fill-rule="evenodd" fill="#08CAC9"/>
		<path d="M9.91699 40.874L40.0098 40.8789C40.2539 40.6445 40.498 40.4053 40.7324 40.1611L9.19434 40.1611C9.42871 40.4053 9.66797 40.6445 9.91699 40.874L9.91699 40.874Z" fill-rule="evenodd" fill="#08CACA"/>
		<path d="M10.708 41.5918L39.2139 41.5967C39.4824 41.3623 39.7461 41.1279 40.0049 40.8789L9.91211 40.874C10.1709 41.1182 10.4395 41.3574 10.708 41.5918Z" fill-rule="evenodd" fill="#08C9CB"/>
		<path d="M11.582 42.3047L38.335 42.3096C38.6328 42.0801 38.9258 41.8408 39.2139 41.5918L10.708 41.5918C10.9912 41.8359 11.2842 42.0752 11.582 42.3047Z" fill-rule="evenodd" fill="#08C9CC"/>
		<path d="M12.0898 42.6855L37.832 42.6904C38.0029 42.5684 38.1738 42.4365 38.3398 42.3096L11.5869 42.3047C11.748 42.4365 11.9189 42.5635 12.0898 42.6855L12.0898 42.6855ZM24.9658 46.8799C29.7754 46.8799 34.2236 45.3271 37.832 42.6953L12.0898 42.6904C15.7031 45.3223 20.1514 46.8799 24.9658 46.8799Z" fill-rule="evenodd" fill="#08C9CC"/>
		<path d="M35.8594 19.9854L38.667 19.9854L38.0322 13.3789L32.5195 13.3789L31.8848 19.9854L34.6973 19.9854L34.6973 27.4219L33.125 27.4219L33.125 33.0078L37.4316 33.0078L37.4316 27.4219L35.8594 27.4219L35.8594 19.9854Z" fill-rule="evenodd" fill="#FFFFFF"/>
		<path d="M35.8643 26.0547L34.6924 26.0547L34.6924 24.7559L35.8643 24.7559L35.8643 26.0547Z" fill-rule="evenodd" fill="#FFFFFF"/>
		<path d="M35.8643 26.1133L34.6924 26.1084L34.6924 26.0547L35.8643 26.0547L35.8643 26.1133Z" fill-rule="evenodd" fill="#FFFFFF"/>
		<path d="M35.8643 26.167L34.6924 26.1621L34.6924 26.1084L35.8643 26.1133L35.8643 26.167Z" fill-rule="evenodd" fill="#FCFFFE"/>
		<path d="M35.8643 26.2207L34.6924 26.2207L34.6924 26.1621L35.8643 26.167L35.8643 26.2207Z" fill-rule="evenodd" fill="#FAFFFE"/>
		<path d="M35.8643 26.2793L34.6924 26.2744L34.6924 26.2207L35.8643 26.2207L35.8643 26.2793Z" fill-rule="evenodd" fill="#F7FEFD"/>
		<path d="M35.8643 26.333L34.6924 26.3281L34.6924 26.2744L35.8643 26.2793L35.8643 26.333Z" fill-rule="evenodd" fill="#F4FEFD"/>
		<path d="M35.8643 26.3867L34.6924 26.3867L34.6924 26.3281L35.8643 26.333L35.8643 26.3867Z" fill-rule="evenodd" fill="#F1FEFC"/>
		<path d="M35.8643 26.4404L34.6924 26.4404L34.6924 26.3867L35.8643 26.3867L35.8643 26.4404Z" fill-rule="evenodd" fill="#EFFEFC"/>
		<path d="M35.8643 26.499L34.6924 26.4941L34.6924 26.4404L35.8643 26.4404L35.8643 26.499Z" fill-rule="evenodd" fill="#ECFEFB"/>
		<path d="M35.8643 26.5527L34.6924 26.5527L34.6924 26.4941L35.8643 26.499L35.8643 26.5527Z" fill-rule="evenodd" fill="#E9FEFB"/>
		<path d="M35.8643 26.6064L34.6924 26.6064L34.6924 26.5527L35.8643 26.5527L35.8643 26.6064Z" fill-rule="evenodd" fill="#E7FDFA"/>
		<path d="M35.8643 26.665L34.6924 26.6602L34.6924 26.6064L35.8643 26.6064L35.8643 26.665Z" fill-rule="evenodd" fill="#E4FDFA"/>
		<path d="M35.8643 26.7188L34.6924 26.7188L34.6924 26.6602L35.8643 26.665L35.8643 26.7188Z" fill-rule="evenodd" fill="#E1FDF9"/>
		<path d="M35.8643 26.7725L34.6924 26.7725L34.6924 26.7188L35.8643 26.7188L35.8643 26.7725Z" fill-rule="evenodd" fill="#DFFDF9"/>
		<path d="M35.8643 26.8311L34.6924 26.8262L34.6924 26.7725L35.8643 26.7725L35.8643 26.8311Z" fill-rule="evenodd" fill="#DCFDF8"/>
		<path d="M35.8643 26.8848L34.6924 26.8848L34.6924 26.8262L35.8643 26.8311L35.8643 26.8848Z" fill-rule="evenodd" fill="#D9FCF7"/>
		<path d="M35.8643 26.9385L34.6924 26.9385L34.6924 26.8848L35.8643 26.8848L35.8643 26.9385Z" fill-rule="evenodd" fill="#D7FCF7"/>
		<path d="M35.8643 26.9971L34.6924 26.9922L34.6924 26.9385L35.8643 26.9385L35.8643 26.9971Z" fill-rule="evenodd" fill="#D4FCF6"/>
		<path d="M35.8643 27.0508L34.6924 27.0508L34.6924 26.9922L35.8643 26.9971L35.8643 27.0508Z" fill-rule="evenodd" fill="#D1FCF6"/>
		<path d="M35.8643 27.1045L34.6924 27.1045L34.6924 27.0508L35.8643 27.0508L35.8643 27.1045Z" fill-rule="evenodd" fill="#CFFCF5"/>
		<path d="M35.8643 27.1631L34.6924 27.1582L34.6924 27.1045L35.8643 27.1045L35.8643 27.1631Z" fill-rule="evenodd" fill="#CCFBF5"/>
		<path d="M35.8643 27.2168L34.6924 27.2168L34.6924 27.1582L35.8643 27.1631L35.8643 27.2168Z" fill-rule="evenodd" fill="#C9FBF4"/>
		<path d="M35.8643 27.2705L34.6924 27.2705L34.6924 27.2168L35.8643 27.2168L35.8643 27.2705Z" fill-rule="evenodd" fill="#C7FBF4"/>
		<path d="M35.8643 27.3291L34.6924 27.3242L34.6924 27.2705L35.8643 27.2705L35.8643 27.3291Z" fill-rule="evenodd" fill="#C4FBF3"/>
		<path d="M35.8643 27.3828L34.6924 27.3828L34.6924 27.3242L35.8643 27.3291L35.8643 27.3828Z" fill-rule="evenodd" fill="#C1FBF3"/>
		<path d="M34.6924 27.3828L35.8643 27.3828L35.8643 27.417L34.6924 27.417L34.6924 27.3828Z" fill-rule="evenodd" fill="#BFFBF2"/>
		<path d="M34.6973 22.6416L35.8594 22.6416L35.8594 21.3477L34.6973 21.3477L34.6973 22.6416ZM34.6973 21.3477L35.8594 21.3477L35.8594 21.2939L34.6973 21.2891L34.6973 21.3477Z" fill-rule="evenodd" fill="#FFFFFF"/>
		<path d="M34.6973 21.2891L35.8594 21.2939L35.8594 21.2402L34.6973 21.2354L34.6973 21.2891Z" fill-rule="evenodd" fill="#FCFFFE"/>
		<path d="M34.6973 21.2354L35.8594 21.2402L35.8594 21.1816L34.6973 21.1816L34.6973 21.2354Z" fill-rule="evenodd" fill="#FAFFFE"/>
		<path d="M34.6973 21.1816L35.8594 21.1816L35.8594 21.1279L34.6973 21.123L34.6973 21.1816Z" fill-rule="evenodd" fill="#F7FEFD"/>
		<path d="M34.6973 21.123L35.8594 21.1279L35.8594 21.0742L34.6973 21.0693L34.6973 21.123Z" fill-rule="evenodd" fill="#F4FEFD"/>
		<path d="M34.6973 21.0693L35.8594 21.0742L35.8594 21.0156L34.6973 21.0156L34.6973 21.0693Z" fill-rule="evenodd" fill="#F1FEFC"/>
		<path d="M34.6973 21.0156L35.8594 21.0156L35.8594 20.9619L34.6973 20.9619L34.6973 21.0156Z" fill-rule="evenodd" fill="#EFFEFC"/>
		<path d="M34.6973 20.9619L35.8594 20.9619L35.8594 20.9082L34.6973 20.9033L34.6973 20.9619Z" fill-rule="evenodd" fill="#ECFEFB"/>
		<path d="M34.6973 20.9033L35.8594 20.9082L35.8594 20.8496L34.6973 20.8496L34.6973 20.9033Z" fill-rule="evenodd" fill="#E9FEFB"/>
		<path d="M34.6973 20.8496L35.8594 20.8496L35.8594 20.7959L34.6973 20.7959L34.6973 20.8496Z" fill-rule="evenodd" fill="#E7FDFA"/>
		<path d="M34.6973 20.7959L35.8594 20.7959L35.8594 20.7422L34.6973 20.7373L34.6973 20.7959Z" fill-rule="evenodd" fill="#E4FDFA"/>
		<path d="M34.6973 20.7373L35.8594 20.7422L35.8594 20.6836L34.6973 20.6836L34.6973 20.7373Z" fill-rule="evenodd" fill="#E1FDF9"/>
		<path d="M34.6973 20.6836L35.8594 20.6836L35.8594 20.6299L34.6973 20.6299L34.6973 20.6836Z" fill-rule="evenodd" fill="#DFFDF9"/>
		<path d="M34.6973 20.6299L35.8594 20.6299L35.8594 20.5762L34.6973 20.5713L34.6973 20.6299Z" fill-rule="evenodd" fill="#DCFDF8"/>
		<path d="M34.6973 20.5713L35.8594 20.5762L35.8594 20.5225L34.6973 20.5176L34.6973 20.5713Z" fill-rule="evenodd" fill="#D9FCF7"/>
		<path d="M34.6973 20.5176L35.8594 20.5225L35.8594 20.4639L34.6973 20.4639L34.6973 20.5176Z" fill-rule="evenodd" fill="#D7FCF7"/>
		<path d="M34.6973 20.4639L35.8594 20.4639L35.8594 20.4102L34.6973 20.4053L34.6973 20.4639Z" fill-rule="evenodd" fill="#D4FCF6"/>
		<path d="M34.6973 20.4053L35.8594 20.4102L35.8594 20.3564L34.6973 20.3516L34.6973 20.4053Z" fill-rule="evenodd" fill="#D1FCF6"/>
		<path d="M34.6973 20.3516L35.8594 20.3564L35.8594 20.2979L34.6973 20.2979L34.6973 20.3516Z" fill-rule="evenodd" fill="#CFFCF5"/>
		<path d="M34.6973 20.2979L35.8594 20.2979L35.8594 20.2441L34.6973 20.2393L34.6973 20.2979Z" fill-rule="evenodd" fill="#CCFBF5"/>
		<path d="M34.6973 20.2393L35.8594 20.2441L35.8594 20.1904L34.6973 20.1855L34.6973 20.2393Z" fill-rule="evenodd" fill="#C9FBF4"/>
		<path d="M34.6973 20.1855L35.8594 20.1904L35.8594 20.1318L34.6973 20.1318L34.6973 20.1855Z" fill-rule="evenodd" fill="#C7FBF4"/>
		<path d="M34.6973 20.1318L35.8594 20.1318L35.8594 20.0781L34.6973 20.0781L34.6973 20.1318Z" fill-rule="evenodd" fill="#C4FBF3"/>
		<path d="M34.6973 20.0781L35.8594 20.0781L35.8594 20.0244L34.6973 20.0195L34.6973 20.0781Z" fill-rule="evenodd" fill="#C1FBF3"/>
		<path d="M34.3701 19.9854L34.6973 19.9854L34.6973 20.0195L35.8594 20.0244L35.8594 19.9854L36.1865 19.9854L34.3701 19.9854Z" fill-rule="evenodd" fill="#BFFBF2"/>
		<path d="M30.9229 25.7666L29.5654 25.7666C29.2432 25.7666 28.9844 26.0254 28.9844 26.3477L28.9844 29.0479C28.9844 29.3701 28.7256 29.6289 28.4033 29.6289L14.5996 29.6289C14.2773 29.6289 14.0186 29.3701 14.0186 29.0479L14.0186 26.3477C14.0186 26.0254 13.7598 25.7666 13.4375 25.7666L12.0752 25.7666C11.2695 25.7666 10.6201 26.416 10.6201 27.2217L10.6201 31.6016C10.6201 32.4072 11.2744 33.0566 12.0752 33.0566L30.9277 33.0566C31.7334 33.0566 32.3828 32.4072 32.3828 31.6016L32.3828 27.2217C32.3828 26.416 31.7285 25.7666 30.9229 25.7666Z" fill-rule="evenodd" fill="#FFFFFF"/>
		<path d="M22.0508 20.6348L22.0508 28.8818L27.4902 28.8818C27.8125 28.8818 28.0713 28.623 28.0713 28.2959L28.0713 25.5273C28.0713 25.2051 28.3301 24.9463 28.6523 24.9463L30.5566 24.9463L30.5566 23.252C30.5566 21.8066 29.3848 20.6348 27.9346 20.6348L22.0508 20.6348L22.0508 20.6348Z" fill-rule="evenodd" fill="#FFFFFF"/>
		<path d="M22.0264 26.6553L28.0469 26.665L28.0469 25.5273C28.0469 25.2051 28.3057 24.9463 28.6279 24.9463L30.5322 24.9463L30.5322 24.5508L22.0215 24.541L22.0215 26.6553L22.0264 26.6553Z" fill-rule="evenodd" fill="#FFFFFF"/>
		<path d="M22.0264 26.7432L28.0469 26.7578L28.0469 26.665L22.0264 26.6553L22.0264 26.7432Z" fill-rule="evenodd" fill="#FFFFFF"/>
		<path d="M22.0264 26.8359L28.0469 26.8457L28.0469 26.7578L22.0264 26.7432L22.0264 26.8359Z" fill-rule="evenodd" fill="#FCFFFE"/>
		<path d="M22.0264 26.9238L28.0469 26.9385L28.0469 26.8457L22.0264 26.8359L22.0264 26.9238Z" fill-rule="evenodd" fill="#FAFFFE"/>
		<path d="M22.0264 27.0166L28.0469 27.0264L28.0469 26.9385L22.0264 26.9238L22.0264 27.0166Z" fill-rule="evenodd" fill="#F7FEFD"/>
		<path d="M22.0264 27.1045L28.0469 27.1191L28.0469 27.0264L22.0264 27.0166L22.0264 27.1045Z" fill-rule="evenodd" fill="#F4FEFD"/>
		<path d="M22.0264 27.1973L28.0469 27.207L28.0469 27.1191L22.0264 27.1045L22.0264 27.1973Z" fill-rule="evenodd" fill="#F1FEFC"/>
		<path d="M22.0264 27.2852L28.0469 27.2998L28.0469 27.207L22.0264 27.1973L22.0264 27.2852Z" fill-rule="evenodd" fill="#EFFEFC"/>
		<path d="M22.0264 27.3779L28.0469 27.3877L28.0469 27.2998L22.0264 27.2852L22.0264 27.3779Z" fill-rule="evenodd" fill="#ECFEFB"/>
		<path d="M22.0264 27.4658L28.0469 27.4805L28.0469 27.3877L22.0264 27.3779L22.0264 27.4658Z" fill-rule="evenodd" fill="#E9FEFB"/>
		<path d="M22.0264 27.5586L28.0469 27.5684L28.0469 27.4805L22.0264 27.4658L22.0264 27.5586Z" fill-rule="evenodd" fill="#E7FDFA"/>
		<path d="M22.0264 27.6465L28.0469 27.6611L28.0469 27.5684L22.0264 27.5586L22.0264 27.6465Z" fill-rule="evenodd" fill="#E4FDFA"/>
		<path d="M22.0264 27.7393L28.0469 27.749L28.0469 27.6611L22.0264 27.6465L22.0264 27.7393Z" fill-rule="evenodd" fill="#E1FDF9"/>
		<path d="M22.0264 27.8271L28.0469 27.8418L28.0469 27.749L22.0264 27.7393L22.0264 27.8271Z" fill-rule="evenodd" fill="#DFFDF9"/>
		<path d="M22.0264 27.9199L28.0469 27.9297L28.0469 27.8418L22.0264 27.8271L22.0264 27.9199Z" fill-rule="evenodd" fill="#DCFDF8"/>
		<path d="M22.0264 28.0078L28.0469 28.0225L28.0469 27.9297L22.0264 27.9199L22.0264 28.0078Z" fill-rule="evenodd" fill="#D9FCF7"/>
		<path d="M22.0264 28.1006L28.0469 28.1104L28.0469 28.0225L22.0264 28.0078L22.0264 28.1006Z" fill-rule="evenodd" fill="#D7FCF7"/>
		<path d="M22.0264 28.1885L28.0469 28.2031L28.0469 28.1104L22.0264 28.1006L22.0264 28.1885Z" fill-rule="evenodd" fill="#D4FCF6"/>
		<path d="M22.0264 28.2812L28.0469 28.291L28.0469 28.2031L22.0264 28.1885L22.0264 28.2812Z" fill-rule="evenodd" fill="#D1FCF6"/>
		<path d="M22.0264 28.3691L28.042 28.3789C28.0469 28.3496 28.0469 28.3203 28.0469 28.291L28.0469 28.2861L22.0264 28.2764L22.0264 28.3691L22.0264 28.3691Z" fill-rule="evenodd" fill="#CFFCF5"/>
		<path d="M22.0264 28.4619L28.0225 28.4717C28.0322 28.4424 28.0371 28.4131 28.042 28.3789L22.0264 28.3691L22.0264 28.4619L22.0264 28.4619Z" fill-rule="evenodd" fill="#CCFBF5"/>
		<path d="M22.0264 28.5547L27.9834 28.5645C27.998 28.5352 28.0127 28.5059 28.0225 28.4717L22.0264 28.4619L22.0264 28.5547L22.0264 28.5547Z" fill-rule="evenodd" fill="#C9FBF4"/>
		<path d="M22.0264 28.6426L27.9248 28.6523L27.9834 28.5645L22.0264 28.5547L22.0264 28.6426L22.0264 28.6426Z" fill-rule="evenodd" fill="#C7FBF4"/>
		<path d="M22.0264 28.7354L27.8369 28.7451C27.8711 28.7207 27.8955 28.6865 27.9248 28.6572L22.0264 28.6475L22.0264 28.7354L22.0264 28.7354Z" fill-rule="evenodd" fill="#C4FBF3"/>
		<path d="M22.0264 28.8232L27.6904 28.833C27.7441 28.8086 27.793 28.7793 27.8369 28.7451L22.0264 28.7354L22.0264 28.8232L22.0264 28.8232Z" fill-rule="evenodd" fill="#C1FBF3"/>
		<path d="M22.0264 28.8818L27.4658 28.8818C27.5439 28.8818 27.6221 28.8672 27.6904 28.8379L22.0264 28.8281L22.0264 28.8818L22.0264 28.8818Z" fill-rule="evenodd" fill="#BFFBF2"/>
		<path d="M21.0156 20.6348L21.0156 28.8818L15.5762 28.8818C15.2539 28.8818 14.9951 28.623 14.9951 28.2959L14.9951 25.5273C14.9951 25.2051 14.7363 24.9463 14.4141 24.9463L12.5098 24.9463L12.5098 23.252C12.5098 21.8066 13.6816 20.6348 15.1318 20.6348L21.0156 20.6348L21.0156 20.6348Z" fill-rule="evenodd" fill="#FFFFFF"/>
		<path d="M21.04 26.6553L15.0195 26.665L15.0195 25.5273C15.0195 25.2051 14.7607 24.9463 14.4385 24.9463L12.5342 24.9463L12.5342 24.5508L21.0449 24.541L21.0449 26.6553L21.04 26.6553Z" fill-rule="evenodd" fill="#FFFFFF"/>
		<path d="M21.04 26.7432L15.0146 26.7578L15.0146 26.665L21.04 26.6553L21.04 26.7432Z" fill-rule="evenodd" fill="#FFFFFF"/>
		<path d="M21.04 26.8359L15.0146 26.8457L15.0146 26.7578L21.04 26.7432L21.04 26.8359Z" fill-rule="evenodd" fill="#FCFFFE"/>
		<path d="M21.04 26.9238L15.0146 26.9385L15.0146 26.8457L21.04 26.8359L21.04 26.9238Z" fill-rule="evenodd" fill="#FAFFFE"/>
		<path d="M21.04 27.0166L15.0146 27.0264L15.0146 26.9385L21.04 26.9238L21.04 27.0166Z" fill-rule="evenodd" fill="#F7FEFD"/>
		<path d="M21.04 27.1045L15.0146 27.1191L15.0146 27.0264L21.04 27.0166L21.04 27.1045Z" fill-rule="evenodd" fill="#F4FEFD"/>
		<path d="M21.04 27.1973L15.0146 27.207L15.0146 27.1191L21.04 27.1045L21.04 27.1973Z" fill-rule="evenodd" fill="#F1FEFC"/>
		<path d="M21.04 27.2852L15.0146 27.2998L15.0146 27.207L21.04 27.1973L21.04 27.2852Z" fill-rule="evenodd" fill="#EFFEFC"/>
		<path d="M21.04 27.3779L15.0146 27.3877L15.0146 27.2998L21.04 27.2852L21.04 27.3779Z" fill-rule="evenodd" fill="#ECFEFB"/>
		<path d="M21.04 27.4658L15.0146 27.4805L15.0146 27.3877L21.04 27.3779L21.04 27.4658Z" fill-rule="evenodd" fill="#E9FEFB"/>
		<path d="M21.04 27.5586L15.0146 27.5684L15.0146 27.4805L21.04 27.4658L21.04 27.5586Z" fill-rule="evenodd" fill="#E7FDFA"/>
		<path d="M21.04 27.6465L15.0146 27.6611L15.0146 27.5684L21.04 27.5586L21.04 27.6465Z" fill-rule="evenodd" fill="#E4FDFA"/>
		<path d="M21.04 27.7393L15.0146 27.749L15.0146 27.6611L21.04 27.6465L21.04 27.7393Z" fill-rule="evenodd" fill="#E1FDF9"/>
		<path d="M21.04 27.8271L15.0146 27.8418L15.0146 27.749L21.04 27.7393L21.04 27.8271Z" fill-rule="evenodd" fill="#DFFDF9"/>
		<path d="M21.04 27.9199L15.0146 27.9297L15.0146 27.8418L21.04 27.8271L21.04 27.9199Z" fill-rule="evenodd" fill="#DCFDF8"/>
		<path d="M21.04 28.0078L15.0146 28.0225L15.0146 27.9297L21.04 27.9199L21.04 28.0078Z" fill-rule="evenodd" fill="#D9FCF7"/>
		<path d="M21.04 28.1006L15.0146 28.1104L15.0146 28.0225L21.04 28.0078L21.04 28.1006Z" fill-rule="evenodd" fill="#D7FCF7"/>
		<path d="M21.04 28.1885L15.0146 28.2031L15.0146 28.1104L21.04 28.1006L21.04 28.1885Z" fill-rule="evenodd" fill="#D4FCF6"/>
		<path d="M21.04 28.2812L15.0146 28.291L15.0146 28.2031L21.04 28.1885L21.04 28.2812Z" fill-rule="evenodd" fill="#D1FCF6"/>
		<path d="M21.04 28.3691L15.0244 28.3789C15.0195 28.3496 15.0195 28.3203 15.0195 28.291L15.0195 28.2861L21.04 28.2764L21.04 28.3691L21.04 28.3691Z" fill-rule="evenodd" fill="#CFFCF5"/>
		<path d="M21.04 28.4619L15.0439 28.4717C15.0342 28.4424 15.0293 28.4131 15.0244 28.3789L21.04 28.3691L21.04 28.4619L21.04 28.4619Z" fill-rule="evenodd" fill="#CCFBF5"/>
		<path d="M21.04 28.5547L15.083 28.5645C15.0684 28.5352 15.0537 28.5059 15.0439 28.4717L21.04 28.4619L21.04 28.5547L21.04 28.5547Z" fill-rule="evenodd" fill="#C9FBF4"/>
		<path d="M21.04 28.6426L15.1416 28.6523L15.083 28.5645L21.04 28.5547L21.04 28.6426L21.04 28.6426Z" fill-rule="evenodd" fill="#C7FBF4"/>
		<path d="M21.04 28.7354L15.2295 28.7451C15.1953 28.7207 15.1709 28.6865 15.1416 28.6572L21.04 28.6475L21.04 28.7354L21.04 28.7354Z" fill-rule="evenodd" fill="#C4FBF3"/>
		<path d="M21.04 28.8232L15.376 28.833C15.3223 28.8086 15.2734 28.7793 15.2295 28.7451L21.04 28.7354L21.04 28.8232Z" fill-rule="evenodd" fill="#C1FBF3"/>
		<path d="M21.04 28.8818L15.6006 28.8818C15.5225 28.8818 15.4443 28.8672 15.376 28.8379L21.04 28.8281L21.04 28.8818L21.04 28.8818Z" fill-rule="evenodd" fill="#BFFBF2"/>
	</g>
	<defs>
		<clipPath id="clip9_314">
			<rect width="50.000000" height="50.000000" fill="white"/>
		</clipPath>
	</defs>
</svg>
