<?xml version="1.0" standalone="no"?><!DOCTYPE svg PUBLIC "-//W3C//DTD SVG 1.1//EN" "http://www.w3.org/Graphics/SVG/1.1/DTD/svg11.dtd"><svg t="1658923539901" class="icon" viewBox="0 0 1024 1024" version="1.1" xmlns="http://www.w3.org/2000/svg" p-id="1436" xmlns:xlink="http://www.w3.org/1999/xlink" width="200" height="200"><defs><style type="text/css">@font-face { font-family: feedback-iconfont; src: url("//at.alicdn.com/t/font_1031158_u69w8yhxdu.woff2?t=1630033759944") format("woff2"), url("//at.alicdn.com/t/font_1031158_u69w8yhxdu.woff?t=1630033759944") format("woff"), url("//at.alicdn.com/t/font_1031158_u69w8yhxdu.ttf?t=1630033759944") format("truetype"); }
</style></defs><path d="M768 597.333333h-85.333333v-170.666666h85.333333a170.666667 170.666667 0 1 0-170.666667-170.666667v85.333333h-170.666666V256a170.666667 170.666667 0 1 0-170.666667 170.666667h85.333333v170.666666H256a170.666667 170.666667 0 1 0 170.666667 170.666667v-85.333333h170.666666v85.333333a170.666667 170.666667 0 1 0 170.666667-170.666667z m0-426.666666a85.333333 85.333333 0 0 1 0 170.666666h-85.333333V256a85.333333 85.333333 0 0 1 85.333333-85.333333zM170.666667 256a85.333333 85.333333 0 0 1 170.666666 0v85.333333H256a85.333333 85.333333 0 0 1-85.333333-85.333333z m85.333333 597.333333a85.333333 85.333333 0 0 1 0-170.666666h85.333333v85.333333a85.333333 85.333333 0 0 1-85.333333 85.333333z m170.666667-256v-170.666666h170.666666v170.666666h-170.666666z m341.333333 256a85.333333 85.333333 0 0 1-85.333333-85.333333v-85.333333h85.333333a85.333333 85.333333 0 0 1 0 170.666666z" p-id="1437"></path></svg>